%TF.GenerationSoftware,KiCad,Pcbnew,5.1.6+dfsg1-1*%
%TF.CreationDate,2020-07-08T08:01:11+01:00*%
%TF.ProjectId,Brew_Temperature_Controller,42726577-5f54-4656-9d70-657261747572,rev?*%
%TF.SameCoordinates,Original*%
%TF.FileFunction,Copper,L2,Bot*%
%TF.FilePolarity,Positive*%
%FSLAX46Y46*%
G04 Gerber Fmt 4.6, Leading zero omitted, Abs format (unit mm)*
G04 Created by KiCad (PCBNEW 5.1.6+dfsg1-1) date 2020-07-08 08:01:11*
%MOMM*%
%LPD*%
G01*
G04 APERTURE LIST*
%TA.AperFunction,ComponentPad*%
%ADD10O,1.200000X2.000000*%
%TD*%
%TA.AperFunction,ComponentPad*%
%ADD11O,2.000000X3.100000*%
%TD*%
%TA.AperFunction,ComponentPad*%
%ADD12O,3.100000X2.000000*%
%TD*%
%TA.AperFunction,ComponentPad*%
%ADD13O,1.600000X1.600000*%
%TD*%
%TA.AperFunction,ComponentPad*%
%ADD14R,1.600000X1.600000*%
%TD*%
%TA.AperFunction,ComponentPad*%
%ADD15C,1.600000*%
%TD*%
%TA.AperFunction,ComponentPad*%
%ADD16R,2.600000X2.600000*%
%TD*%
%TA.AperFunction,ComponentPad*%
%ADD17C,2.600000*%
%TD*%
%TA.AperFunction,ComponentPad*%
%ADD18R,1.700000X1.700000*%
%TD*%
%TA.AperFunction,ComponentPad*%
%ADD19O,1.700000X1.700000*%
%TD*%
%TA.AperFunction,ComponentPad*%
%ADD20R,1.800000X1.717500*%
%TD*%
%TA.AperFunction,ComponentPad*%
%ADD21O,1.800000X1.717500*%
%TD*%
%TA.AperFunction,ComponentPad*%
%ADD22C,2.000000*%
%TD*%
%TA.AperFunction,Conductor*%
%ADD23C,0.254000*%
%TD*%
G04 APERTURE END LIST*
D10*
%TO.P,U1,1*%
%TO.N,RST*%
X74930000Y-146812000D03*
%TO.P,U1,2*%
%TO.N,CE*%
X77470000Y-146812000D03*
%TO.P,U1,3*%
%TO.N,DC*%
X80010000Y-146812000D03*
%TO.P,U1,4*%
%TO.N,SDIN*%
X82550000Y-146812000D03*
%TO.P,U1,5*%
%TO.N,SCLK*%
X85090000Y-146812000D03*
%TO.P,U1,6*%
%TO.N,+3V3*%
X87630000Y-146812000D03*
%TO.P,U1,7*%
%TO.N,LIGHT*%
X90170000Y-146812000D03*
%TO.P,U1,8*%
%TO.N,GND*%
X92710000Y-146812000D03*
%TD*%
D11*
%TO.P,F1,2*%
%TO.N,Net-(F1-Pad2)*%
X103014000Y-173482000D03*
X99314000Y-173482000D03*
%TO.P,F1,1*%
%TO.N,+12V*%
X95014000Y-173482000D03*
X91314000Y-173482000D03*
%TD*%
D12*
%TO.P,F2,2*%
%TO.N,Net-(F2-Pad2)*%
X102616000Y-163194000D03*
X102616000Y-159494000D03*
%TO.P,F2,1*%
%TO.N,Vdrive*%
X102616000Y-155194000D03*
X102616000Y-151494000D03*
%TD*%
D13*
%TO.P,A1,16*%
%TO.N,N/C*%
X111506000Y-130556000D03*
%TO.P,A1,15*%
X114046000Y-130556000D03*
%TO.P,A1,30*%
X74426000Y-130556000D03*
%TO.P,A1,14*%
X114046000Y-178816000D03*
%TO.P,A1,29*%
%TO.N,GND*%
X76966000Y-130556000D03*
%TO.P,A1,13*%
%TO.N,N/C*%
X111506000Y-178816000D03*
%TO.P,A1,28*%
%TO.N,SCLK*%
X79506000Y-130556000D03*
%TO.P,A1,12*%
%TO.N,N/C*%
X108966000Y-178816000D03*
%TO.P,A1,27*%
X82046000Y-130556000D03*
%TO.P,A1,11*%
X106426000Y-178816000D03*
%TO.P,A1,26*%
%TO.N,SDIN*%
X84586000Y-130556000D03*
%TO.P,A1,10*%
%TO.N,N/C*%
X103886000Y-178816000D03*
%TO.P,A1,25*%
%TO.N,CE*%
X87126000Y-130556000D03*
%TO.P,A1,9*%
%TO.N,THERM*%
X101346000Y-178816000D03*
%TO.P,A1,24*%
%TO.N,DC*%
X89666000Y-130556000D03*
%TO.P,A1,8*%
%TO.N,+12V*%
X96266000Y-178816000D03*
%TO.P,A1,23*%
%TO.N,RST*%
X92206000Y-130556000D03*
%TO.P,A1,7*%
%TO.N,GND*%
X93726000Y-178816000D03*
%TO.P,A1,22*%
%TO.N,N/C*%
X96266000Y-130556000D03*
%TO.P,A1,6*%
%TO.N,GND*%
X91186000Y-178816000D03*
%TO.P,A1,21*%
%TO.N,LIGHT*%
X98806000Y-130556000D03*
%TO.P,A1,5*%
%TO.N,+5V*%
X88646000Y-178816000D03*
%TO.P,A1,20*%
%TO.N,Button1*%
X101346000Y-130556000D03*
%TO.P,A1,4*%
%TO.N,+3V3*%
X86106000Y-178816000D03*
%TO.P,A1,19*%
%TO.N,Button2*%
X103886000Y-130556000D03*
%TO.P,A1,3*%
%TO.N,N/C*%
X83566000Y-178816000D03*
%TO.P,A1,18*%
X106426000Y-130556000D03*
%TO.P,A1,2*%
X81026000Y-178816000D03*
%TO.P,A1,17*%
%TO.N,HEATER*%
X108966000Y-130556000D03*
D14*
%TO.P,A1,1*%
%TO.N,N/C*%
X78486000Y-178816000D03*
D13*
%TO.P,A1,31*%
X71886000Y-130556000D03*
%TO.P,A1,32*%
X69346000Y-130556000D03*
%TD*%
D14*
%TO.P,C3,1*%
%TO.N,THERM*%
X93218000Y-168656000D03*
D15*
%TO.P,C3,2*%
%TO.N,GND*%
X93218000Y-166656000D03*
%TD*%
D16*
%TO.P,J1,1*%
%TO.N,Net-(F1-Pad2)*%
X112522000Y-173482000D03*
D17*
%TO.P,J1,2*%
%TO.N,GND*%
X112522000Y-168402000D03*
%TO.P,J1,3*%
%TO.N,Net-(F2-Pad2)*%
X112522000Y-163322000D03*
%TO.P,J1,4*%
%TO.N,GND*%
X112522000Y-158242000D03*
%TD*%
D16*
%TO.P,J2,1*%
%TO.N,Vdrive*%
X112522000Y-151130000D03*
D17*
%TO.P,J2,2*%
%TO.N,Net-(J2-Pad2)*%
X112522000Y-146050000D03*
%TD*%
D18*
%TO.P,J3,1*%
%TO.N,GND*%
X103124000Y-167894000D03*
D19*
%TO.P,J3,2*%
%TO.N,THERM*%
X100584000Y-167894000D03*
%TD*%
D20*
%TO.P,Q1,1*%
%TO.N,HEATER*%
X103818667Y-135124000D03*
D21*
%TO.P,Q1,2*%
%TO.N,Net-(J2-Pad2)*%
X103818667Y-137414000D03*
%TO.P,Q1,3*%
%TO.N,GND*%
X103818667Y-139704000D03*
%TD*%
D15*
%TO.P,R1,1*%
%TO.N,+5V*%
X86106000Y-173482000D03*
D13*
%TO.P,R1,2*%
%TO.N,THERM*%
X86106000Y-163322000D03*
%TD*%
D22*
%TO.P,SW1,1*%
%TO.N,GND*%
X75588000Y-153488000D03*
%TO.P,SW1,2*%
%TO.N,Button1*%
X75588000Y-157988000D03*
%TO.P,SW1,1*%
%TO.N,GND*%
X69088000Y-153488000D03*
%TO.P,SW1,2*%
%TO.N,Button1*%
X69088000Y-157988000D03*
%TD*%
%TO.P,SW2,2*%
%TO.N,Button2*%
X69192000Y-171958000D03*
%TO.P,SW2,1*%
%TO.N,GND*%
X69192000Y-167458000D03*
%TO.P,SW2,2*%
%TO.N,Button2*%
X75692000Y-171958000D03*
%TO.P,SW2,1*%
%TO.N,GND*%
X75692000Y-167458000D03*
%TD*%
D23*
%TO.N,GND*%
G36*
X115901001Y-129823737D02*
G01*
X115901000Y-140936361D01*
X115897687Y-140970000D01*
X115901000Y-141003639D01*
X115901000Y-141003646D01*
X115910912Y-141104282D01*
X115950081Y-141233405D01*
X116013688Y-141352406D01*
X116043525Y-141388762D01*
X116077840Y-141430576D01*
X116077846Y-141430582D01*
X116099289Y-141456710D01*
X116125418Y-141478154D01*
X118441001Y-143793737D01*
X118441000Y-175992264D01*
X116125418Y-178307846D01*
X116099290Y-178329289D01*
X116077847Y-178355417D01*
X116077840Y-178355424D01*
X116043371Y-178397426D01*
X116013689Y-178433593D01*
X115995854Y-178466960D01*
X115950082Y-178552594D01*
X115910912Y-178681717D01*
X115897687Y-178816000D01*
X115901001Y-178849649D01*
X115901000Y-180671000D01*
X63931000Y-180671000D01*
X63931000Y-178016000D01*
X77047928Y-178016000D01*
X77047928Y-179616000D01*
X77060188Y-179740482D01*
X77096498Y-179860180D01*
X77155463Y-179970494D01*
X77234815Y-180067185D01*
X77331506Y-180146537D01*
X77441820Y-180205502D01*
X77561518Y-180241812D01*
X77686000Y-180254072D01*
X79286000Y-180254072D01*
X79410482Y-180241812D01*
X79530180Y-180205502D01*
X79640494Y-180146537D01*
X79737185Y-180067185D01*
X79816537Y-179970494D01*
X79875502Y-179860180D01*
X79911812Y-179740482D01*
X79912643Y-179732039D01*
X80111241Y-179930637D01*
X80346273Y-180087680D01*
X80607426Y-180195853D01*
X80884665Y-180251000D01*
X81167335Y-180251000D01*
X81444574Y-180195853D01*
X81705727Y-180087680D01*
X81940759Y-179930637D01*
X82140637Y-179730759D01*
X82296000Y-179498241D01*
X82451363Y-179730759D01*
X82651241Y-179930637D01*
X82886273Y-180087680D01*
X83147426Y-180195853D01*
X83424665Y-180251000D01*
X83707335Y-180251000D01*
X83984574Y-180195853D01*
X84245727Y-180087680D01*
X84480759Y-179930637D01*
X84680637Y-179730759D01*
X84836000Y-179498241D01*
X84991363Y-179730759D01*
X85191241Y-179930637D01*
X85426273Y-180087680D01*
X85687426Y-180195853D01*
X85964665Y-180251000D01*
X86247335Y-180251000D01*
X86524574Y-180195853D01*
X86785727Y-180087680D01*
X87020759Y-179930637D01*
X87220637Y-179730759D01*
X87376000Y-179498241D01*
X87531363Y-179730759D01*
X87731241Y-179930637D01*
X87966273Y-180087680D01*
X88227426Y-180195853D01*
X88504665Y-180251000D01*
X88787335Y-180251000D01*
X89064574Y-180195853D01*
X89325727Y-180087680D01*
X89560759Y-179930637D01*
X89760637Y-179730759D01*
X89917680Y-179495727D01*
X89922067Y-179485135D01*
X90033615Y-179671131D01*
X90222586Y-179879519D01*
X90448580Y-180047037D01*
X90702913Y-180167246D01*
X90836961Y-180207904D01*
X91059000Y-180085915D01*
X91059000Y-178943000D01*
X91313000Y-178943000D01*
X91313000Y-180085915D01*
X91535039Y-180207904D01*
X91669087Y-180167246D01*
X91923420Y-180047037D01*
X92149414Y-179879519D01*
X92338385Y-179671131D01*
X92456000Y-179475018D01*
X92573615Y-179671131D01*
X92762586Y-179879519D01*
X92988580Y-180047037D01*
X93242913Y-180167246D01*
X93376961Y-180207904D01*
X93599000Y-180085915D01*
X93599000Y-178943000D01*
X91313000Y-178943000D01*
X91059000Y-178943000D01*
X91039000Y-178943000D01*
X91039000Y-178689000D01*
X91059000Y-178689000D01*
X91059000Y-177546085D01*
X91313000Y-177546085D01*
X91313000Y-178689000D01*
X93599000Y-178689000D01*
X93599000Y-177546085D01*
X93853000Y-177546085D01*
X93853000Y-178689000D01*
X93873000Y-178689000D01*
X93873000Y-178943000D01*
X93853000Y-178943000D01*
X93853000Y-180085915D01*
X94075039Y-180207904D01*
X94209087Y-180167246D01*
X94463420Y-180047037D01*
X94689414Y-179879519D01*
X94878385Y-179671131D01*
X94989933Y-179485135D01*
X94994320Y-179495727D01*
X95151363Y-179730759D01*
X95351241Y-179930637D01*
X95586273Y-180087680D01*
X95847426Y-180195853D01*
X96124665Y-180251000D01*
X96407335Y-180251000D01*
X96684574Y-180195853D01*
X96945727Y-180087680D01*
X97180759Y-179930637D01*
X97380637Y-179730759D01*
X97537680Y-179495727D01*
X97645853Y-179234574D01*
X97701000Y-178957335D01*
X97701000Y-178674665D01*
X99911000Y-178674665D01*
X99911000Y-178957335D01*
X99966147Y-179234574D01*
X100074320Y-179495727D01*
X100231363Y-179730759D01*
X100431241Y-179930637D01*
X100666273Y-180087680D01*
X100927426Y-180195853D01*
X101204665Y-180251000D01*
X101487335Y-180251000D01*
X101764574Y-180195853D01*
X102025727Y-180087680D01*
X102260759Y-179930637D01*
X102460637Y-179730759D01*
X102616000Y-179498241D01*
X102771363Y-179730759D01*
X102971241Y-179930637D01*
X103206273Y-180087680D01*
X103467426Y-180195853D01*
X103744665Y-180251000D01*
X104027335Y-180251000D01*
X104304574Y-180195853D01*
X104565727Y-180087680D01*
X104800759Y-179930637D01*
X105000637Y-179730759D01*
X105156000Y-179498241D01*
X105311363Y-179730759D01*
X105511241Y-179930637D01*
X105746273Y-180087680D01*
X106007426Y-180195853D01*
X106284665Y-180251000D01*
X106567335Y-180251000D01*
X106844574Y-180195853D01*
X107105727Y-180087680D01*
X107340759Y-179930637D01*
X107540637Y-179730759D01*
X107696000Y-179498241D01*
X107851363Y-179730759D01*
X108051241Y-179930637D01*
X108286273Y-180087680D01*
X108547426Y-180195853D01*
X108824665Y-180251000D01*
X109107335Y-180251000D01*
X109384574Y-180195853D01*
X109645727Y-180087680D01*
X109880759Y-179930637D01*
X110080637Y-179730759D01*
X110236000Y-179498241D01*
X110391363Y-179730759D01*
X110591241Y-179930637D01*
X110826273Y-180087680D01*
X111087426Y-180195853D01*
X111364665Y-180251000D01*
X111647335Y-180251000D01*
X111924574Y-180195853D01*
X112185727Y-180087680D01*
X112420759Y-179930637D01*
X112620637Y-179730759D01*
X112776000Y-179498241D01*
X112931363Y-179730759D01*
X113131241Y-179930637D01*
X113366273Y-180087680D01*
X113627426Y-180195853D01*
X113904665Y-180251000D01*
X114187335Y-180251000D01*
X114464574Y-180195853D01*
X114725727Y-180087680D01*
X114960759Y-179930637D01*
X115160637Y-179730759D01*
X115317680Y-179495727D01*
X115425853Y-179234574D01*
X115481000Y-178957335D01*
X115481000Y-178674665D01*
X115425853Y-178397426D01*
X115317680Y-178136273D01*
X115160637Y-177901241D01*
X114960759Y-177701363D01*
X114725727Y-177544320D01*
X114464574Y-177436147D01*
X114187335Y-177381000D01*
X113904665Y-177381000D01*
X113627426Y-177436147D01*
X113366273Y-177544320D01*
X113131241Y-177701363D01*
X112931363Y-177901241D01*
X112776000Y-178133759D01*
X112620637Y-177901241D01*
X112420759Y-177701363D01*
X112185727Y-177544320D01*
X111924574Y-177436147D01*
X111647335Y-177381000D01*
X111364665Y-177381000D01*
X111087426Y-177436147D01*
X110826273Y-177544320D01*
X110591241Y-177701363D01*
X110391363Y-177901241D01*
X110236000Y-178133759D01*
X110080637Y-177901241D01*
X109880759Y-177701363D01*
X109645727Y-177544320D01*
X109384574Y-177436147D01*
X109107335Y-177381000D01*
X108824665Y-177381000D01*
X108547426Y-177436147D01*
X108286273Y-177544320D01*
X108051241Y-177701363D01*
X107851363Y-177901241D01*
X107696000Y-178133759D01*
X107540637Y-177901241D01*
X107340759Y-177701363D01*
X107105727Y-177544320D01*
X106844574Y-177436147D01*
X106567335Y-177381000D01*
X106284665Y-177381000D01*
X106007426Y-177436147D01*
X105746273Y-177544320D01*
X105511241Y-177701363D01*
X105311363Y-177901241D01*
X105156000Y-178133759D01*
X105000637Y-177901241D01*
X104800759Y-177701363D01*
X104565727Y-177544320D01*
X104304574Y-177436147D01*
X104027335Y-177381000D01*
X103744665Y-177381000D01*
X103467426Y-177436147D01*
X103206273Y-177544320D01*
X102971241Y-177701363D01*
X102771363Y-177901241D01*
X102616000Y-178133759D01*
X102460637Y-177901241D01*
X102260759Y-177701363D01*
X102025727Y-177544320D01*
X101764574Y-177436147D01*
X101487335Y-177381000D01*
X101204665Y-177381000D01*
X100927426Y-177436147D01*
X100666273Y-177544320D01*
X100431241Y-177701363D01*
X100231363Y-177901241D01*
X100074320Y-178136273D01*
X99966147Y-178397426D01*
X99911000Y-178674665D01*
X97701000Y-178674665D01*
X97645853Y-178397426D01*
X97537680Y-178136273D01*
X97380637Y-177901241D01*
X97180759Y-177701363D01*
X96945727Y-177544320D01*
X96684574Y-177436147D01*
X96407335Y-177381000D01*
X96124665Y-177381000D01*
X95847426Y-177436147D01*
X95586273Y-177544320D01*
X95351241Y-177701363D01*
X95151363Y-177901241D01*
X94994320Y-178136273D01*
X94989933Y-178146865D01*
X94878385Y-177960869D01*
X94689414Y-177752481D01*
X94463420Y-177584963D01*
X94209087Y-177464754D01*
X94075039Y-177424096D01*
X93853000Y-177546085D01*
X93599000Y-177546085D01*
X93376961Y-177424096D01*
X93242913Y-177464754D01*
X92988580Y-177584963D01*
X92762586Y-177752481D01*
X92573615Y-177960869D01*
X92456000Y-178156982D01*
X92338385Y-177960869D01*
X92149414Y-177752481D01*
X91923420Y-177584963D01*
X91669087Y-177464754D01*
X91535039Y-177424096D01*
X91313000Y-177546085D01*
X91059000Y-177546085D01*
X90836961Y-177424096D01*
X90702913Y-177464754D01*
X90448580Y-177584963D01*
X90222586Y-177752481D01*
X90033615Y-177960869D01*
X89922067Y-178146865D01*
X89917680Y-178136273D01*
X89760637Y-177901241D01*
X89560759Y-177701363D01*
X89325727Y-177544320D01*
X89064574Y-177436147D01*
X88787335Y-177381000D01*
X88504665Y-177381000D01*
X88227426Y-177436147D01*
X87966273Y-177544320D01*
X87731241Y-177701363D01*
X87531363Y-177901241D01*
X87376000Y-178133759D01*
X87220637Y-177901241D01*
X87020759Y-177701363D01*
X86785727Y-177544320D01*
X86524574Y-177436147D01*
X86247335Y-177381000D01*
X85964665Y-177381000D01*
X85687426Y-177436147D01*
X85426273Y-177544320D01*
X85191241Y-177701363D01*
X84991363Y-177901241D01*
X84836000Y-178133759D01*
X84680637Y-177901241D01*
X84480759Y-177701363D01*
X84245727Y-177544320D01*
X83984574Y-177436147D01*
X83707335Y-177381000D01*
X83424665Y-177381000D01*
X83147426Y-177436147D01*
X82886273Y-177544320D01*
X82651241Y-177701363D01*
X82451363Y-177901241D01*
X82296000Y-178133759D01*
X82140637Y-177901241D01*
X81940759Y-177701363D01*
X81705727Y-177544320D01*
X81444574Y-177436147D01*
X81167335Y-177381000D01*
X80884665Y-177381000D01*
X80607426Y-177436147D01*
X80346273Y-177544320D01*
X80111241Y-177701363D01*
X79912643Y-177899961D01*
X79911812Y-177891518D01*
X79875502Y-177771820D01*
X79816537Y-177661506D01*
X79737185Y-177564815D01*
X79640494Y-177485463D01*
X79530180Y-177426498D01*
X79410482Y-177390188D01*
X79286000Y-177377928D01*
X77686000Y-177377928D01*
X77561518Y-177390188D01*
X77441820Y-177426498D01*
X77331506Y-177485463D01*
X77234815Y-177564815D01*
X77155463Y-177661506D01*
X77096498Y-177771820D01*
X77060188Y-177891518D01*
X77047928Y-178016000D01*
X63931000Y-178016000D01*
X63931000Y-171796967D01*
X67557000Y-171796967D01*
X67557000Y-172119033D01*
X67619832Y-172434912D01*
X67743082Y-172732463D01*
X67922013Y-173000252D01*
X68149748Y-173227987D01*
X68417537Y-173406918D01*
X68715088Y-173530168D01*
X69030967Y-173593000D01*
X69353033Y-173593000D01*
X69668912Y-173530168D01*
X69966463Y-173406918D01*
X70234252Y-173227987D01*
X70461987Y-173000252D01*
X70640918Y-172732463D01*
X70764168Y-172434912D01*
X70827000Y-172119033D01*
X70827000Y-171796967D01*
X74057000Y-171796967D01*
X74057000Y-172119033D01*
X74119832Y-172434912D01*
X74243082Y-172732463D01*
X74422013Y-173000252D01*
X74649748Y-173227987D01*
X74917537Y-173406918D01*
X75215088Y-173530168D01*
X75530967Y-173593000D01*
X75853033Y-173593000D01*
X76168912Y-173530168D01*
X76466463Y-173406918D01*
X76565617Y-173340665D01*
X84671000Y-173340665D01*
X84671000Y-173623335D01*
X84726147Y-173900574D01*
X84834320Y-174161727D01*
X84991363Y-174396759D01*
X85191241Y-174596637D01*
X85426273Y-174753680D01*
X85687426Y-174861853D01*
X85964665Y-174917000D01*
X86247335Y-174917000D01*
X86524574Y-174861853D01*
X86785727Y-174753680D01*
X87020759Y-174596637D01*
X87220637Y-174396759D01*
X87377680Y-174161727D01*
X87485853Y-173900574D01*
X87541000Y-173623335D01*
X87541000Y-173340665D01*
X87485853Y-173063426D01*
X87398145Y-172851679D01*
X89679000Y-172851679D01*
X89679000Y-174112322D01*
X89702657Y-174352516D01*
X89796148Y-174660715D01*
X89947970Y-174944752D01*
X90152287Y-175193714D01*
X90401249Y-175398031D01*
X90685286Y-175549852D01*
X90993485Y-175643343D01*
X91314000Y-175674911D01*
X91634516Y-175643343D01*
X91942715Y-175549852D01*
X92226752Y-175398031D01*
X92475714Y-175193714D01*
X92680031Y-174944752D01*
X92831852Y-174660715D01*
X92925343Y-174352516D01*
X92949000Y-174112322D01*
X92949000Y-172851679D01*
X93379000Y-172851679D01*
X93379000Y-174112322D01*
X93402657Y-174352516D01*
X93496148Y-174660715D01*
X93647970Y-174944752D01*
X93852287Y-175193714D01*
X94101249Y-175398031D01*
X94385286Y-175549852D01*
X94693485Y-175643343D01*
X95014000Y-175674911D01*
X95334516Y-175643343D01*
X95642715Y-175549852D01*
X95926752Y-175398031D01*
X96175714Y-175193714D01*
X96380031Y-174944752D01*
X96531852Y-174660715D01*
X96625343Y-174352516D01*
X96649000Y-174112322D01*
X96649000Y-172851679D01*
X97679000Y-172851679D01*
X97679000Y-174112322D01*
X97702657Y-174352516D01*
X97796148Y-174660715D01*
X97947970Y-174944752D01*
X98152287Y-175193714D01*
X98401249Y-175398031D01*
X98685286Y-175549852D01*
X98993485Y-175643343D01*
X99314000Y-175674911D01*
X99634516Y-175643343D01*
X99942715Y-175549852D01*
X100226752Y-175398031D01*
X100475714Y-175193714D01*
X100680031Y-174944752D01*
X100831852Y-174660715D01*
X100925343Y-174352516D01*
X100949000Y-174112322D01*
X100949000Y-172851679D01*
X101379000Y-172851679D01*
X101379000Y-174112322D01*
X101402657Y-174352516D01*
X101496148Y-174660715D01*
X101647970Y-174944752D01*
X101852287Y-175193714D01*
X102101249Y-175398031D01*
X102385286Y-175549852D01*
X102693485Y-175643343D01*
X103014000Y-175674911D01*
X103334516Y-175643343D01*
X103642715Y-175549852D01*
X103926752Y-175398031D01*
X104175714Y-175193714D01*
X104380031Y-174944752D01*
X104531852Y-174660715D01*
X104625343Y-174352516D01*
X104649000Y-174112322D01*
X104649000Y-172851678D01*
X104625343Y-172611484D01*
X104531852Y-172303285D01*
X104467024Y-172182000D01*
X110583928Y-172182000D01*
X110583928Y-174782000D01*
X110596188Y-174906482D01*
X110632498Y-175026180D01*
X110691463Y-175136494D01*
X110770815Y-175233185D01*
X110867506Y-175312537D01*
X110977820Y-175371502D01*
X111097518Y-175407812D01*
X111222000Y-175420072D01*
X113822000Y-175420072D01*
X113946482Y-175407812D01*
X114066180Y-175371502D01*
X114176494Y-175312537D01*
X114273185Y-175233185D01*
X114352537Y-175136494D01*
X114411502Y-175026180D01*
X114447812Y-174906482D01*
X114460072Y-174782000D01*
X114460072Y-172182000D01*
X114447812Y-172057518D01*
X114411502Y-171937820D01*
X114352537Y-171827506D01*
X114273185Y-171730815D01*
X114176494Y-171651463D01*
X114066180Y-171592498D01*
X113946482Y-171556188D01*
X113822000Y-171543928D01*
X111222000Y-171543928D01*
X111097518Y-171556188D01*
X110977820Y-171592498D01*
X110867506Y-171651463D01*
X110770815Y-171730815D01*
X110691463Y-171827506D01*
X110632498Y-171937820D01*
X110596188Y-172057518D01*
X110583928Y-172182000D01*
X104467024Y-172182000D01*
X104380031Y-172019248D01*
X104175714Y-171770286D01*
X103926751Y-171565969D01*
X103642714Y-171414148D01*
X103334515Y-171320657D01*
X103014000Y-171289089D01*
X102693484Y-171320657D01*
X102385285Y-171414148D01*
X102101248Y-171565969D01*
X101852286Y-171770286D01*
X101647969Y-172019249D01*
X101496148Y-172303286D01*
X101402657Y-172611485D01*
X101379000Y-172851679D01*
X100949000Y-172851679D01*
X100949000Y-172851678D01*
X100925343Y-172611484D01*
X100831852Y-172303285D01*
X100680031Y-172019248D01*
X100475714Y-171770286D01*
X100226751Y-171565969D01*
X99942714Y-171414148D01*
X99634515Y-171320657D01*
X99314000Y-171289089D01*
X98993484Y-171320657D01*
X98685285Y-171414148D01*
X98401248Y-171565969D01*
X98152286Y-171770286D01*
X97947969Y-172019249D01*
X97796148Y-172303286D01*
X97702657Y-172611485D01*
X97679000Y-172851679D01*
X96649000Y-172851679D01*
X96649000Y-172851678D01*
X96625343Y-172611484D01*
X96531852Y-172303285D01*
X96380031Y-172019248D01*
X96175714Y-171770286D01*
X95926751Y-171565969D01*
X95642714Y-171414148D01*
X95334515Y-171320657D01*
X95014000Y-171289089D01*
X94693484Y-171320657D01*
X94385285Y-171414148D01*
X94101248Y-171565969D01*
X93852286Y-171770286D01*
X93647969Y-172019249D01*
X93496148Y-172303286D01*
X93402657Y-172611485D01*
X93379000Y-172851679D01*
X92949000Y-172851679D01*
X92949000Y-172851678D01*
X92925343Y-172611484D01*
X92831852Y-172303285D01*
X92680031Y-172019248D01*
X92475714Y-171770286D01*
X92226751Y-171565969D01*
X91942714Y-171414148D01*
X91634515Y-171320657D01*
X91314000Y-171289089D01*
X90993484Y-171320657D01*
X90685285Y-171414148D01*
X90401248Y-171565969D01*
X90152286Y-171770286D01*
X89947969Y-172019249D01*
X89796148Y-172303286D01*
X89702657Y-172611485D01*
X89679000Y-172851679D01*
X87398145Y-172851679D01*
X87377680Y-172802273D01*
X87220637Y-172567241D01*
X87020759Y-172367363D01*
X86785727Y-172210320D01*
X86524574Y-172102147D01*
X86247335Y-172047000D01*
X85964665Y-172047000D01*
X85687426Y-172102147D01*
X85426273Y-172210320D01*
X85191241Y-172367363D01*
X84991363Y-172567241D01*
X84834320Y-172802273D01*
X84726147Y-173063426D01*
X84671000Y-173340665D01*
X76565617Y-173340665D01*
X76734252Y-173227987D01*
X76961987Y-173000252D01*
X77140918Y-172732463D01*
X77264168Y-172434912D01*
X77327000Y-172119033D01*
X77327000Y-171796967D01*
X77264168Y-171481088D01*
X77140918Y-171183537D01*
X76961987Y-170915748D01*
X76734252Y-170688013D01*
X76466463Y-170509082D01*
X76168912Y-170385832D01*
X75853033Y-170323000D01*
X75530967Y-170323000D01*
X75215088Y-170385832D01*
X74917537Y-170509082D01*
X74649748Y-170688013D01*
X74422013Y-170915748D01*
X74243082Y-171183537D01*
X74119832Y-171481088D01*
X74057000Y-171796967D01*
X70827000Y-171796967D01*
X70764168Y-171481088D01*
X70640918Y-171183537D01*
X70461987Y-170915748D01*
X70234252Y-170688013D01*
X69966463Y-170509082D01*
X69668912Y-170385832D01*
X69353033Y-170323000D01*
X69030967Y-170323000D01*
X68715088Y-170385832D01*
X68417537Y-170509082D01*
X68149748Y-170688013D01*
X67922013Y-170915748D01*
X67743082Y-171183537D01*
X67619832Y-171481088D01*
X67557000Y-171796967D01*
X63931000Y-171796967D01*
X63931000Y-168593413D01*
X68236192Y-168593413D01*
X68331956Y-168857814D01*
X68621571Y-168998704D01*
X68933108Y-169080384D01*
X69254595Y-169099718D01*
X69573675Y-169055961D01*
X69878088Y-168950795D01*
X70052044Y-168857814D01*
X70147808Y-168593413D01*
X74736192Y-168593413D01*
X74831956Y-168857814D01*
X75121571Y-168998704D01*
X75433108Y-169080384D01*
X75754595Y-169099718D01*
X76073675Y-169055961D01*
X76378088Y-168950795D01*
X76552044Y-168857814D01*
X76647808Y-168593413D01*
X75692000Y-167637605D01*
X74736192Y-168593413D01*
X70147808Y-168593413D01*
X69192000Y-167637605D01*
X68236192Y-168593413D01*
X63931000Y-168593413D01*
X63931000Y-167520595D01*
X67550282Y-167520595D01*
X67594039Y-167839675D01*
X67699205Y-168144088D01*
X67792186Y-168318044D01*
X68056587Y-168413808D01*
X69012395Y-167458000D01*
X69371605Y-167458000D01*
X70327413Y-168413808D01*
X70591814Y-168318044D01*
X70732704Y-168028429D01*
X70814384Y-167716892D01*
X70826189Y-167520595D01*
X74050282Y-167520595D01*
X74094039Y-167839675D01*
X74199205Y-168144088D01*
X74292186Y-168318044D01*
X74556587Y-168413808D01*
X75512395Y-167458000D01*
X75871605Y-167458000D01*
X76827413Y-168413808D01*
X77091814Y-168318044D01*
X77232704Y-168028429D01*
X77314384Y-167716892D01*
X77333718Y-167395405D01*
X77289961Y-167076325D01*
X77184795Y-166771912D01*
X77160529Y-166726512D01*
X91777783Y-166726512D01*
X91819213Y-167006130D01*
X91914397Y-167272292D01*
X91979616Y-167394309D01*
X91966815Y-167404815D01*
X91887463Y-167501506D01*
X91828498Y-167611820D01*
X91792188Y-167731518D01*
X91779928Y-167856000D01*
X91779928Y-169456000D01*
X91792188Y-169580482D01*
X91828498Y-169700180D01*
X91887463Y-169810494D01*
X91966815Y-169907185D01*
X92063506Y-169986537D01*
X92173820Y-170045502D01*
X92293518Y-170081812D01*
X92418000Y-170094072D01*
X94018000Y-170094072D01*
X94142482Y-170081812D01*
X94262180Y-170045502D01*
X94372494Y-169986537D01*
X94469185Y-169907185D01*
X94548537Y-169810494D01*
X94580217Y-169751224D01*
X111352381Y-169751224D01*
X111484317Y-170046312D01*
X111825045Y-170217159D01*
X112192557Y-170318250D01*
X112572729Y-170345701D01*
X112950951Y-170298457D01*
X113312690Y-170178333D01*
X113559683Y-170046312D01*
X113691619Y-169751224D01*
X112522000Y-168581605D01*
X111352381Y-169751224D01*
X94580217Y-169751224D01*
X94607502Y-169700180D01*
X94643812Y-169580482D01*
X94656072Y-169456000D01*
X94656072Y-167856000D01*
X94645410Y-167747740D01*
X99099000Y-167747740D01*
X99099000Y-168040260D01*
X99156068Y-168327158D01*
X99268010Y-168597411D01*
X99430525Y-168840632D01*
X99637368Y-169047475D01*
X99880589Y-169209990D01*
X100150842Y-169321932D01*
X100437740Y-169379000D01*
X100730260Y-169379000D01*
X101017158Y-169321932D01*
X101287411Y-169209990D01*
X101530632Y-169047475D01*
X101662487Y-168915620D01*
X101684498Y-168988180D01*
X101743463Y-169098494D01*
X101822815Y-169195185D01*
X101919506Y-169274537D01*
X102029820Y-169333502D01*
X102149518Y-169369812D01*
X102274000Y-169382072D01*
X102838250Y-169379000D01*
X102997000Y-169220250D01*
X102997000Y-168021000D01*
X103251000Y-168021000D01*
X103251000Y-169220250D01*
X103409750Y-169379000D01*
X103974000Y-169382072D01*
X104098482Y-169369812D01*
X104218180Y-169333502D01*
X104328494Y-169274537D01*
X104425185Y-169195185D01*
X104504537Y-169098494D01*
X104563502Y-168988180D01*
X104599812Y-168868482D01*
X104612072Y-168744000D01*
X104610487Y-168452729D01*
X110578299Y-168452729D01*
X110625543Y-168830951D01*
X110745667Y-169192690D01*
X110877688Y-169439683D01*
X111172776Y-169571619D01*
X112342395Y-168402000D01*
X112701605Y-168402000D01*
X113871224Y-169571619D01*
X114166312Y-169439683D01*
X114337159Y-169098955D01*
X114438250Y-168731443D01*
X114465701Y-168351271D01*
X114418457Y-167973049D01*
X114298333Y-167611310D01*
X114166312Y-167364317D01*
X113871224Y-167232381D01*
X112701605Y-168402000D01*
X112342395Y-168402000D01*
X111172776Y-167232381D01*
X110877688Y-167364317D01*
X110706841Y-167705045D01*
X110605750Y-168072557D01*
X110578299Y-168452729D01*
X104610487Y-168452729D01*
X104609000Y-168179750D01*
X104450250Y-168021000D01*
X103251000Y-168021000D01*
X102997000Y-168021000D01*
X102977000Y-168021000D01*
X102977000Y-167767000D01*
X102997000Y-167767000D01*
X102997000Y-166567750D01*
X103251000Y-166567750D01*
X103251000Y-167767000D01*
X104450250Y-167767000D01*
X104609000Y-167608250D01*
X104612024Y-167052776D01*
X111352381Y-167052776D01*
X112522000Y-168222395D01*
X113691619Y-167052776D01*
X113559683Y-166757688D01*
X113218955Y-166586841D01*
X112851443Y-166485750D01*
X112471271Y-166458299D01*
X112093049Y-166505543D01*
X111731310Y-166625667D01*
X111484317Y-166757688D01*
X111352381Y-167052776D01*
X104612024Y-167052776D01*
X104612072Y-167044000D01*
X104599812Y-166919518D01*
X104563502Y-166799820D01*
X104504537Y-166689506D01*
X104425185Y-166592815D01*
X104328494Y-166513463D01*
X104218180Y-166454498D01*
X104098482Y-166418188D01*
X103974000Y-166405928D01*
X103409750Y-166409000D01*
X103251000Y-166567750D01*
X102997000Y-166567750D01*
X102838250Y-166409000D01*
X102274000Y-166405928D01*
X102149518Y-166418188D01*
X102029820Y-166454498D01*
X101919506Y-166513463D01*
X101822815Y-166592815D01*
X101743463Y-166689506D01*
X101684498Y-166799820D01*
X101662487Y-166872380D01*
X101530632Y-166740525D01*
X101287411Y-166578010D01*
X101017158Y-166466068D01*
X100730260Y-166409000D01*
X100437740Y-166409000D01*
X100150842Y-166466068D01*
X99880589Y-166578010D01*
X99637368Y-166740525D01*
X99430525Y-166947368D01*
X99268010Y-167190589D01*
X99156068Y-167460842D01*
X99099000Y-167747740D01*
X94645410Y-167747740D01*
X94643812Y-167731518D01*
X94607502Y-167611820D01*
X94548537Y-167501506D01*
X94469185Y-167404815D01*
X94456242Y-167394193D01*
X94575571Y-167142004D01*
X94644300Y-166867816D01*
X94658217Y-166585488D01*
X94616787Y-166305870D01*
X94521603Y-166039708D01*
X94454671Y-165914486D01*
X94210702Y-165842903D01*
X93397605Y-166656000D01*
X93411748Y-166670143D01*
X93232143Y-166849748D01*
X93218000Y-166835605D01*
X93203858Y-166849748D01*
X93024253Y-166670143D01*
X93038395Y-166656000D01*
X92225298Y-165842903D01*
X91981329Y-165914486D01*
X91860429Y-166169996D01*
X91791700Y-166444184D01*
X91777783Y-166726512D01*
X77160529Y-166726512D01*
X77091814Y-166597956D01*
X76827413Y-166502192D01*
X75871605Y-167458000D01*
X75512395Y-167458000D01*
X74556587Y-166502192D01*
X74292186Y-166597956D01*
X74151296Y-166887571D01*
X74069616Y-167199108D01*
X74050282Y-167520595D01*
X70826189Y-167520595D01*
X70833718Y-167395405D01*
X70789961Y-167076325D01*
X70684795Y-166771912D01*
X70591814Y-166597956D01*
X70327413Y-166502192D01*
X69371605Y-167458000D01*
X69012395Y-167458000D01*
X68056587Y-166502192D01*
X67792186Y-166597956D01*
X67651296Y-166887571D01*
X67569616Y-167199108D01*
X67550282Y-167520595D01*
X63931000Y-167520595D01*
X63931000Y-166322587D01*
X68236192Y-166322587D01*
X69192000Y-167278395D01*
X70147808Y-166322587D01*
X74736192Y-166322587D01*
X75692000Y-167278395D01*
X76647808Y-166322587D01*
X76552044Y-166058186D01*
X76262429Y-165917296D01*
X75950892Y-165835616D01*
X75629405Y-165816282D01*
X75310325Y-165860039D01*
X75005912Y-165965205D01*
X74831956Y-166058186D01*
X74736192Y-166322587D01*
X70147808Y-166322587D01*
X70052044Y-166058186D01*
X69762429Y-165917296D01*
X69450892Y-165835616D01*
X69129405Y-165816282D01*
X68810325Y-165860039D01*
X68505912Y-165965205D01*
X68331956Y-166058186D01*
X68236192Y-166322587D01*
X63931000Y-166322587D01*
X63931000Y-165663298D01*
X92404903Y-165663298D01*
X93218000Y-166476395D01*
X94031097Y-165663298D01*
X93959514Y-165419329D01*
X93704004Y-165298429D01*
X93429816Y-165229700D01*
X93147488Y-165215783D01*
X92867870Y-165257213D01*
X92601708Y-165352397D01*
X92476486Y-165419329D01*
X92404903Y-165663298D01*
X63931000Y-165663298D01*
X63931000Y-163180665D01*
X84671000Y-163180665D01*
X84671000Y-163463335D01*
X84726147Y-163740574D01*
X84834320Y-164001727D01*
X84991363Y-164236759D01*
X85191241Y-164436637D01*
X85426273Y-164593680D01*
X85687426Y-164701853D01*
X85964665Y-164757000D01*
X86247335Y-164757000D01*
X86524574Y-164701853D01*
X86785727Y-164593680D01*
X87020759Y-164436637D01*
X87220637Y-164236759D01*
X87377680Y-164001727D01*
X87485853Y-163740574D01*
X87541000Y-163463335D01*
X87541000Y-163194000D01*
X100423089Y-163194000D01*
X100454657Y-163514516D01*
X100548148Y-163822715D01*
X100699969Y-164106752D01*
X100904286Y-164355714D01*
X101153248Y-164560031D01*
X101437285Y-164711852D01*
X101745484Y-164805343D01*
X101985678Y-164829000D01*
X103246322Y-164829000D01*
X103486516Y-164805343D01*
X103794715Y-164711852D01*
X104078752Y-164560031D01*
X104327714Y-164355714D01*
X104532031Y-164106752D01*
X104683852Y-163822715D01*
X104777343Y-163514516D01*
X104808911Y-163194000D01*
X104802748Y-163131419D01*
X110587000Y-163131419D01*
X110587000Y-163512581D01*
X110661361Y-163886419D01*
X110807225Y-164238566D01*
X111018987Y-164555491D01*
X111288509Y-164825013D01*
X111605434Y-165036775D01*
X111957581Y-165182639D01*
X112331419Y-165257000D01*
X112712581Y-165257000D01*
X113086419Y-165182639D01*
X113438566Y-165036775D01*
X113755491Y-164825013D01*
X114025013Y-164555491D01*
X114236775Y-164238566D01*
X114382639Y-163886419D01*
X114457000Y-163512581D01*
X114457000Y-163131419D01*
X114382639Y-162757581D01*
X114236775Y-162405434D01*
X114025013Y-162088509D01*
X113755491Y-161818987D01*
X113438566Y-161607225D01*
X113086419Y-161461361D01*
X112712581Y-161387000D01*
X112331419Y-161387000D01*
X111957581Y-161461361D01*
X111605434Y-161607225D01*
X111288509Y-161818987D01*
X111018987Y-162088509D01*
X110807225Y-162405434D01*
X110661361Y-162757581D01*
X110587000Y-163131419D01*
X104802748Y-163131419D01*
X104777343Y-162873484D01*
X104683852Y-162565285D01*
X104532031Y-162281248D01*
X104327714Y-162032286D01*
X104078752Y-161827969D01*
X103794715Y-161676148D01*
X103486516Y-161582657D01*
X103246322Y-161559000D01*
X101985678Y-161559000D01*
X101745484Y-161582657D01*
X101437285Y-161676148D01*
X101153248Y-161827969D01*
X100904286Y-162032286D01*
X100699969Y-162281248D01*
X100548148Y-162565285D01*
X100454657Y-162873484D01*
X100423089Y-163194000D01*
X87541000Y-163194000D01*
X87541000Y-163180665D01*
X87485853Y-162903426D01*
X87377680Y-162642273D01*
X87220637Y-162407241D01*
X87020759Y-162207363D01*
X86785727Y-162050320D01*
X86524574Y-161942147D01*
X86247335Y-161887000D01*
X85964665Y-161887000D01*
X85687426Y-161942147D01*
X85426273Y-162050320D01*
X85191241Y-162207363D01*
X84991363Y-162407241D01*
X84834320Y-162642273D01*
X84726147Y-162903426D01*
X84671000Y-163180665D01*
X63931000Y-163180665D01*
X63931000Y-157826967D01*
X67453000Y-157826967D01*
X67453000Y-158149033D01*
X67515832Y-158464912D01*
X67639082Y-158762463D01*
X67818013Y-159030252D01*
X68045748Y-159257987D01*
X68313537Y-159436918D01*
X68611088Y-159560168D01*
X68926967Y-159623000D01*
X69249033Y-159623000D01*
X69564912Y-159560168D01*
X69862463Y-159436918D01*
X70130252Y-159257987D01*
X70357987Y-159030252D01*
X70536918Y-158762463D01*
X70660168Y-158464912D01*
X70723000Y-158149033D01*
X70723000Y-157826967D01*
X73953000Y-157826967D01*
X73953000Y-158149033D01*
X74015832Y-158464912D01*
X74139082Y-158762463D01*
X74318013Y-159030252D01*
X74545748Y-159257987D01*
X74813537Y-159436918D01*
X75111088Y-159560168D01*
X75426967Y-159623000D01*
X75749033Y-159623000D01*
X76064912Y-159560168D01*
X76224655Y-159494000D01*
X100423089Y-159494000D01*
X100454657Y-159814516D01*
X100548148Y-160122715D01*
X100699969Y-160406752D01*
X100904286Y-160655714D01*
X101153248Y-160860031D01*
X101437285Y-161011852D01*
X101745484Y-161105343D01*
X101985678Y-161129000D01*
X103246322Y-161129000D01*
X103486516Y-161105343D01*
X103794715Y-161011852D01*
X104078752Y-160860031D01*
X104327714Y-160655714D01*
X104532031Y-160406752D01*
X104683852Y-160122715D01*
X104777343Y-159814516D01*
X104799335Y-159591224D01*
X111352381Y-159591224D01*
X111484317Y-159886312D01*
X111825045Y-160057159D01*
X112192557Y-160158250D01*
X112572729Y-160185701D01*
X112950951Y-160138457D01*
X113312690Y-160018333D01*
X113559683Y-159886312D01*
X113691619Y-159591224D01*
X112522000Y-158421605D01*
X111352381Y-159591224D01*
X104799335Y-159591224D01*
X104808911Y-159494000D01*
X104777343Y-159173484D01*
X104683852Y-158865285D01*
X104532031Y-158581248D01*
X104327714Y-158332286D01*
X104279514Y-158292729D01*
X110578299Y-158292729D01*
X110625543Y-158670951D01*
X110745667Y-159032690D01*
X110877688Y-159279683D01*
X111172776Y-159411619D01*
X112342395Y-158242000D01*
X112701605Y-158242000D01*
X113871224Y-159411619D01*
X114166312Y-159279683D01*
X114337159Y-158938955D01*
X114438250Y-158571443D01*
X114465701Y-158191271D01*
X114418457Y-157813049D01*
X114298333Y-157451310D01*
X114166312Y-157204317D01*
X113871224Y-157072381D01*
X112701605Y-158242000D01*
X112342395Y-158242000D01*
X111172776Y-157072381D01*
X110877688Y-157204317D01*
X110706841Y-157545045D01*
X110605750Y-157912557D01*
X110578299Y-158292729D01*
X104279514Y-158292729D01*
X104078752Y-158127969D01*
X103794715Y-157976148D01*
X103486516Y-157882657D01*
X103246322Y-157859000D01*
X101985678Y-157859000D01*
X101745484Y-157882657D01*
X101437285Y-157976148D01*
X101153248Y-158127969D01*
X100904286Y-158332286D01*
X100699969Y-158581248D01*
X100548148Y-158865285D01*
X100454657Y-159173484D01*
X100423089Y-159494000D01*
X76224655Y-159494000D01*
X76362463Y-159436918D01*
X76630252Y-159257987D01*
X76857987Y-159030252D01*
X77036918Y-158762463D01*
X77160168Y-158464912D01*
X77223000Y-158149033D01*
X77223000Y-157826967D01*
X77160168Y-157511088D01*
X77036918Y-157213537D01*
X76857987Y-156945748D01*
X76805015Y-156892776D01*
X111352381Y-156892776D01*
X112522000Y-158062395D01*
X113691619Y-156892776D01*
X113559683Y-156597688D01*
X113218955Y-156426841D01*
X112851443Y-156325750D01*
X112471271Y-156298299D01*
X112093049Y-156345543D01*
X111731310Y-156465667D01*
X111484317Y-156597688D01*
X111352381Y-156892776D01*
X76805015Y-156892776D01*
X76630252Y-156718013D01*
X76362463Y-156539082D01*
X76064912Y-156415832D01*
X75749033Y-156353000D01*
X75426967Y-156353000D01*
X75111088Y-156415832D01*
X74813537Y-156539082D01*
X74545748Y-156718013D01*
X74318013Y-156945748D01*
X74139082Y-157213537D01*
X74015832Y-157511088D01*
X73953000Y-157826967D01*
X70723000Y-157826967D01*
X70660168Y-157511088D01*
X70536918Y-157213537D01*
X70357987Y-156945748D01*
X70130252Y-156718013D01*
X69862463Y-156539082D01*
X69564912Y-156415832D01*
X69249033Y-156353000D01*
X68926967Y-156353000D01*
X68611088Y-156415832D01*
X68313537Y-156539082D01*
X68045748Y-156718013D01*
X67818013Y-156945748D01*
X67639082Y-157213537D01*
X67515832Y-157511088D01*
X67453000Y-157826967D01*
X63931000Y-157826967D01*
X63931000Y-155194000D01*
X100423089Y-155194000D01*
X100454657Y-155514516D01*
X100548148Y-155822715D01*
X100699969Y-156106752D01*
X100904286Y-156355714D01*
X101153248Y-156560031D01*
X101437285Y-156711852D01*
X101745484Y-156805343D01*
X101985678Y-156829000D01*
X103246322Y-156829000D01*
X103486516Y-156805343D01*
X103794715Y-156711852D01*
X104078752Y-156560031D01*
X104327714Y-156355714D01*
X104532031Y-156106752D01*
X104683852Y-155822715D01*
X104777343Y-155514516D01*
X104808911Y-155194000D01*
X104777343Y-154873484D01*
X104683852Y-154565285D01*
X104532031Y-154281248D01*
X104327714Y-154032286D01*
X104078752Y-153827969D01*
X103794715Y-153676148D01*
X103486516Y-153582657D01*
X103246322Y-153559000D01*
X101985678Y-153559000D01*
X101745484Y-153582657D01*
X101437285Y-153676148D01*
X101153248Y-153827969D01*
X100904286Y-154032286D01*
X100699969Y-154281248D01*
X100548148Y-154565285D01*
X100454657Y-154873484D01*
X100423089Y-155194000D01*
X63931000Y-155194000D01*
X63931000Y-154623413D01*
X68132192Y-154623413D01*
X68227956Y-154887814D01*
X68517571Y-155028704D01*
X68829108Y-155110384D01*
X69150595Y-155129718D01*
X69469675Y-155085961D01*
X69774088Y-154980795D01*
X69948044Y-154887814D01*
X70043808Y-154623413D01*
X74632192Y-154623413D01*
X74727956Y-154887814D01*
X75017571Y-155028704D01*
X75329108Y-155110384D01*
X75650595Y-155129718D01*
X75969675Y-155085961D01*
X76274088Y-154980795D01*
X76448044Y-154887814D01*
X76543808Y-154623413D01*
X75588000Y-153667605D01*
X74632192Y-154623413D01*
X70043808Y-154623413D01*
X69088000Y-153667605D01*
X68132192Y-154623413D01*
X63931000Y-154623413D01*
X63931000Y-153550595D01*
X67446282Y-153550595D01*
X67490039Y-153869675D01*
X67595205Y-154174088D01*
X67688186Y-154348044D01*
X67952587Y-154443808D01*
X68908395Y-153488000D01*
X69267605Y-153488000D01*
X70223413Y-154443808D01*
X70487814Y-154348044D01*
X70628704Y-154058429D01*
X70710384Y-153746892D01*
X70722189Y-153550595D01*
X73946282Y-153550595D01*
X73990039Y-153869675D01*
X74095205Y-154174088D01*
X74188186Y-154348044D01*
X74452587Y-154443808D01*
X75408395Y-153488000D01*
X75767605Y-153488000D01*
X76723413Y-154443808D01*
X76987814Y-154348044D01*
X77128704Y-154058429D01*
X77210384Y-153746892D01*
X77229718Y-153425405D01*
X77185961Y-153106325D01*
X77080795Y-152801912D01*
X76987814Y-152627956D01*
X76723413Y-152532192D01*
X75767605Y-153488000D01*
X75408395Y-153488000D01*
X74452587Y-152532192D01*
X74188186Y-152627956D01*
X74047296Y-152917571D01*
X73965616Y-153229108D01*
X73946282Y-153550595D01*
X70722189Y-153550595D01*
X70729718Y-153425405D01*
X70685961Y-153106325D01*
X70580795Y-152801912D01*
X70487814Y-152627956D01*
X70223413Y-152532192D01*
X69267605Y-153488000D01*
X68908395Y-153488000D01*
X67952587Y-152532192D01*
X67688186Y-152627956D01*
X67547296Y-152917571D01*
X67465616Y-153229108D01*
X67446282Y-153550595D01*
X63931000Y-153550595D01*
X63931000Y-152352587D01*
X68132192Y-152352587D01*
X69088000Y-153308395D01*
X70043808Y-152352587D01*
X74632192Y-152352587D01*
X75588000Y-153308395D01*
X76543808Y-152352587D01*
X76448044Y-152088186D01*
X76158429Y-151947296D01*
X75846892Y-151865616D01*
X75525405Y-151846282D01*
X75206325Y-151890039D01*
X74901912Y-151995205D01*
X74727956Y-152088186D01*
X74632192Y-152352587D01*
X70043808Y-152352587D01*
X69948044Y-152088186D01*
X69658429Y-151947296D01*
X69346892Y-151865616D01*
X69025405Y-151846282D01*
X68706325Y-151890039D01*
X68401912Y-151995205D01*
X68227956Y-152088186D01*
X68132192Y-152352587D01*
X63931000Y-152352587D01*
X63931000Y-151494000D01*
X100423089Y-151494000D01*
X100454657Y-151814516D01*
X100548148Y-152122715D01*
X100699969Y-152406752D01*
X100904286Y-152655714D01*
X101153248Y-152860031D01*
X101437285Y-153011852D01*
X101745484Y-153105343D01*
X101985678Y-153129000D01*
X103246322Y-153129000D01*
X103486516Y-153105343D01*
X103794715Y-153011852D01*
X104078752Y-152860031D01*
X104327714Y-152655714D01*
X104532031Y-152406752D01*
X104683852Y-152122715D01*
X104777343Y-151814516D01*
X104808911Y-151494000D01*
X104777343Y-151173484D01*
X104683852Y-150865285D01*
X104532031Y-150581248D01*
X104327714Y-150332286D01*
X104078752Y-150127969D01*
X103794715Y-149976148D01*
X103486516Y-149882657D01*
X103246322Y-149859000D01*
X101985678Y-149859000D01*
X101745484Y-149882657D01*
X101437285Y-149976148D01*
X101153248Y-150127969D01*
X100904286Y-150332286D01*
X100699969Y-150581248D01*
X100548148Y-150865285D01*
X100454657Y-151173484D01*
X100423089Y-151494000D01*
X63931000Y-151494000D01*
X63931000Y-149830000D01*
X110583928Y-149830000D01*
X110583928Y-152430000D01*
X110596188Y-152554482D01*
X110632498Y-152674180D01*
X110691463Y-152784494D01*
X110770815Y-152881185D01*
X110867506Y-152960537D01*
X110977820Y-153019502D01*
X111097518Y-153055812D01*
X111222000Y-153068072D01*
X113822000Y-153068072D01*
X113946482Y-153055812D01*
X114066180Y-153019502D01*
X114176494Y-152960537D01*
X114273185Y-152881185D01*
X114352537Y-152784494D01*
X114411502Y-152674180D01*
X114447812Y-152554482D01*
X114460072Y-152430000D01*
X114460072Y-149830000D01*
X114447812Y-149705518D01*
X114411502Y-149585820D01*
X114352537Y-149475506D01*
X114273185Y-149378815D01*
X114176494Y-149299463D01*
X114066180Y-149240498D01*
X113946482Y-149204188D01*
X113822000Y-149191928D01*
X111222000Y-149191928D01*
X111097518Y-149204188D01*
X110977820Y-149240498D01*
X110867506Y-149299463D01*
X110770815Y-149378815D01*
X110691463Y-149475506D01*
X110632498Y-149585820D01*
X110596188Y-149705518D01*
X110583928Y-149830000D01*
X63931000Y-149830000D01*
X63931000Y-146351336D01*
X73695000Y-146351336D01*
X73695000Y-147272665D01*
X73712870Y-147454102D01*
X73783489Y-147686901D01*
X73898168Y-147901449D01*
X74052499Y-148089502D01*
X74240552Y-148243833D01*
X74455100Y-148358511D01*
X74687899Y-148429130D01*
X74930000Y-148452975D01*
X75172102Y-148429130D01*
X75404901Y-148358511D01*
X75619449Y-148243833D01*
X75807502Y-148089502D01*
X75961833Y-147901449D01*
X76076511Y-147686901D01*
X76147130Y-147454101D01*
X76165000Y-147272664D01*
X76165000Y-146351336D01*
X76235000Y-146351336D01*
X76235000Y-147272665D01*
X76252870Y-147454102D01*
X76323489Y-147686901D01*
X76438168Y-147901449D01*
X76592499Y-148089502D01*
X76780552Y-148243833D01*
X76995100Y-148358511D01*
X77227899Y-148429130D01*
X77470000Y-148452975D01*
X77712102Y-148429130D01*
X77944901Y-148358511D01*
X78159449Y-148243833D01*
X78347502Y-148089502D01*
X78501833Y-147901449D01*
X78616511Y-147686901D01*
X78687130Y-147454101D01*
X78705000Y-147272664D01*
X78705000Y-146351336D01*
X78775000Y-146351336D01*
X78775000Y-147272665D01*
X78792870Y-147454102D01*
X78863489Y-147686901D01*
X78978168Y-147901449D01*
X79132499Y-148089502D01*
X79320552Y-148243833D01*
X79535100Y-148358511D01*
X79767899Y-148429130D01*
X80010000Y-148452975D01*
X80252102Y-148429130D01*
X80484901Y-148358511D01*
X80699449Y-148243833D01*
X80887502Y-148089502D01*
X81041833Y-147901449D01*
X81156511Y-147686901D01*
X81227130Y-147454101D01*
X81245000Y-147272664D01*
X81245000Y-146351336D01*
X81315000Y-146351336D01*
X81315000Y-147272665D01*
X81332870Y-147454102D01*
X81403489Y-147686901D01*
X81518168Y-147901449D01*
X81672499Y-148089502D01*
X81860552Y-148243833D01*
X82075100Y-148358511D01*
X82307899Y-148429130D01*
X82550000Y-148452975D01*
X82792102Y-148429130D01*
X83024901Y-148358511D01*
X83239449Y-148243833D01*
X83427502Y-148089502D01*
X83581833Y-147901449D01*
X83696511Y-147686901D01*
X83767130Y-147454101D01*
X83785000Y-147272664D01*
X83785000Y-146351336D01*
X83855000Y-146351336D01*
X83855000Y-147272665D01*
X83872870Y-147454102D01*
X83943489Y-147686901D01*
X84058168Y-147901449D01*
X84212499Y-148089502D01*
X84400552Y-148243833D01*
X84615100Y-148358511D01*
X84847899Y-148429130D01*
X85090000Y-148452975D01*
X85332102Y-148429130D01*
X85564901Y-148358511D01*
X85779449Y-148243833D01*
X85967502Y-148089502D01*
X86121833Y-147901449D01*
X86236511Y-147686901D01*
X86307130Y-147454101D01*
X86325000Y-147272664D01*
X86325000Y-146351336D01*
X86395000Y-146351336D01*
X86395000Y-147272665D01*
X86412870Y-147454102D01*
X86483489Y-147686901D01*
X86598168Y-147901449D01*
X86752499Y-148089502D01*
X86940552Y-148243833D01*
X87155100Y-148358511D01*
X87387899Y-148429130D01*
X87630000Y-148452975D01*
X87872102Y-148429130D01*
X88104901Y-148358511D01*
X88319449Y-148243833D01*
X88507502Y-148089502D01*
X88661833Y-147901449D01*
X88776511Y-147686901D01*
X88847130Y-147454101D01*
X88865000Y-147272664D01*
X88865000Y-146351336D01*
X88935000Y-146351336D01*
X88935000Y-147272665D01*
X88952870Y-147454102D01*
X89023489Y-147686901D01*
X89138168Y-147901449D01*
X89292499Y-148089502D01*
X89480552Y-148243833D01*
X89695100Y-148358511D01*
X89927899Y-148429130D01*
X90170000Y-148452975D01*
X90412102Y-148429130D01*
X90644901Y-148358511D01*
X90859449Y-148243833D01*
X91047502Y-148089502D01*
X91201833Y-147901449D01*
X91316511Y-147686901D01*
X91387130Y-147454101D01*
X91405000Y-147272664D01*
X91405000Y-146939000D01*
X91475000Y-146939000D01*
X91475000Y-147339000D01*
X91523507Y-147577496D01*
X91617610Y-147801946D01*
X91753693Y-148003725D01*
X91926526Y-148175078D01*
X92129467Y-148309421D01*
X92354718Y-148401591D01*
X92392391Y-148405462D01*
X92583000Y-148280731D01*
X92583000Y-146939000D01*
X92837000Y-146939000D01*
X92837000Y-148280731D01*
X93027609Y-148405462D01*
X93065282Y-148401591D01*
X93290533Y-148309421D01*
X93493474Y-148175078D01*
X93666307Y-148003725D01*
X93802390Y-147801946D01*
X93896493Y-147577496D01*
X93945000Y-147339000D01*
X93945000Y-146939000D01*
X92837000Y-146939000D01*
X92583000Y-146939000D01*
X91475000Y-146939000D01*
X91405000Y-146939000D01*
X91405000Y-146351335D01*
X91398467Y-146285000D01*
X91475000Y-146285000D01*
X91475000Y-146685000D01*
X92583000Y-146685000D01*
X92583000Y-145343269D01*
X92837000Y-145343269D01*
X92837000Y-146685000D01*
X93945000Y-146685000D01*
X93945000Y-146285000D01*
X93896493Y-146046504D01*
X93818056Y-145859419D01*
X110587000Y-145859419D01*
X110587000Y-146240581D01*
X110661361Y-146614419D01*
X110807225Y-146966566D01*
X111018987Y-147283491D01*
X111288509Y-147553013D01*
X111605434Y-147764775D01*
X111957581Y-147910639D01*
X112331419Y-147985000D01*
X112712581Y-147985000D01*
X113086419Y-147910639D01*
X113438566Y-147764775D01*
X113755491Y-147553013D01*
X114025013Y-147283491D01*
X114236775Y-146966566D01*
X114382639Y-146614419D01*
X114457000Y-146240581D01*
X114457000Y-145859419D01*
X114382639Y-145485581D01*
X114236775Y-145133434D01*
X114025013Y-144816509D01*
X113755491Y-144546987D01*
X113438566Y-144335225D01*
X113086419Y-144189361D01*
X112712581Y-144115000D01*
X112331419Y-144115000D01*
X111957581Y-144189361D01*
X111605434Y-144335225D01*
X111288509Y-144546987D01*
X111018987Y-144816509D01*
X110807225Y-145133434D01*
X110661361Y-145485581D01*
X110587000Y-145859419D01*
X93818056Y-145859419D01*
X93802390Y-145822054D01*
X93666307Y-145620275D01*
X93493474Y-145448922D01*
X93290533Y-145314579D01*
X93065282Y-145222409D01*
X93027609Y-145218538D01*
X92837000Y-145343269D01*
X92583000Y-145343269D01*
X92392391Y-145218538D01*
X92354718Y-145222409D01*
X92129467Y-145314579D01*
X91926526Y-145448922D01*
X91753693Y-145620275D01*
X91617610Y-145822054D01*
X91523507Y-146046504D01*
X91475000Y-146285000D01*
X91398467Y-146285000D01*
X91387130Y-146169898D01*
X91316511Y-145937099D01*
X91201833Y-145722551D01*
X91047502Y-145534498D01*
X90859448Y-145380167D01*
X90644900Y-145265489D01*
X90412101Y-145194870D01*
X90170000Y-145171025D01*
X89927898Y-145194870D01*
X89695099Y-145265489D01*
X89480551Y-145380167D01*
X89292498Y-145534498D01*
X89138167Y-145722552D01*
X89023489Y-145937100D01*
X88952870Y-146169899D01*
X88935000Y-146351336D01*
X88865000Y-146351336D01*
X88865000Y-146351335D01*
X88847130Y-146169898D01*
X88776511Y-145937099D01*
X88661833Y-145722551D01*
X88507502Y-145534498D01*
X88319448Y-145380167D01*
X88104900Y-145265489D01*
X87872101Y-145194870D01*
X87630000Y-145171025D01*
X87387898Y-145194870D01*
X87155099Y-145265489D01*
X86940551Y-145380167D01*
X86752498Y-145534498D01*
X86598167Y-145722552D01*
X86483489Y-145937100D01*
X86412870Y-146169899D01*
X86395000Y-146351336D01*
X86325000Y-146351336D01*
X86325000Y-146351335D01*
X86307130Y-146169898D01*
X86236511Y-145937099D01*
X86121833Y-145722551D01*
X85967502Y-145534498D01*
X85779448Y-145380167D01*
X85564900Y-145265489D01*
X85332101Y-145194870D01*
X85090000Y-145171025D01*
X84847898Y-145194870D01*
X84615099Y-145265489D01*
X84400551Y-145380167D01*
X84212498Y-145534498D01*
X84058167Y-145722552D01*
X83943489Y-145937100D01*
X83872870Y-146169899D01*
X83855000Y-146351336D01*
X83785000Y-146351336D01*
X83785000Y-146351335D01*
X83767130Y-146169898D01*
X83696511Y-145937099D01*
X83581833Y-145722551D01*
X83427502Y-145534498D01*
X83239448Y-145380167D01*
X83024900Y-145265489D01*
X82792101Y-145194870D01*
X82550000Y-145171025D01*
X82307898Y-145194870D01*
X82075099Y-145265489D01*
X81860551Y-145380167D01*
X81672498Y-145534498D01*
X81518167Y-145722552D01*
X81403489Y-145937100D01*
X81332870Y-146169899D01*
X81315000Y-146351336D01*
X81245000Y-146351336D01*
X81245000Y-146351335D01*
X81227130Y-146169898D01*
X81156511Y-145937099D01*
X81041833Y-145722551D01*
X80887502Y-145534498D01*
X80699448Y-145380167D01*
X80484900Y-145265489D01*
X80252101Y-145194870D01*
X80010000Y-145171025D01*
X79767898Y-145194870D01*
X79535099Y-145265489D01*
X79320551Y-145380167D01*
X79132498Y-145534498D01*
X78978167Y-145722552D01*
X78863489Y-145937100D01*
X78792870Y-146169899D01*
X78775000Y-146351336D01*
X78705000Y-146351336D01*
X78705000Y-146351335D01*
X78687130Y-146169898D01*
X78616511Y-145937099D01*
X78501833Y-145722551D01*
X78347502Y-145534498D01*
X78159448Y-145380167D01*
X77944900Y-145265489D01*
X77712101Y-145194870D01*
X77470000Y-145171025D01*
X77227898Y-145194870D01*
X76995099Y-145265489D01*
X76780551Y-145380167D01*
X76592498Y-145534498D01*
X76438167Y-145722552D01*
X76323489Y-145937100D01*
X76252870Y-146169899D01*
X76235000Y-146351336D01*
X76165000Y-146351336D01*
X76165000Y-146351335D01*
X76147130Y-146169898D01*
X76076511Y-145937099D01*
X75961833Y-145722551D01*
X75807502Y-145534498D01*
X75619448Y-145380167D01*
X75404900Y-145265489D01*
X75172101Y-145194870D01*
X74930000Y-145171025D01*
X74687898Y-145194870D01*
X74455099Y-145265489D01*
X74240551Y-145380167D01*
X74052498Y-145534498D01*
X73898167Y-145722552D01*
X73783489Y-145937100D01*
X73712870Y-146169899D01*
X73695000Y-146351336D01*
X63931000Y-146351336D01*
X63931000Y-140062264D01*
X102327267Y-140062264D01*
X102388289Y-140249973D01*
X102521495Y-140510488D01*
X102702965Y-140740010D01*
X102925726Y-140929718D01*
X103181217Y-141072323D01*
X103459619Y-141162344D01*
X103691667Y-141035354D01*
X103691667Y-139831000D01*
X103945667Y-139831000D01*
X103945667Y-141035354D01*
X104177715Y-141162344D01*
X104456117Y-141072323D01*
X104711608Y-140929718D01*
X104934369Y-140740010D01*
X105115839Y-140510488D01*
X105249045Y-140249973D01*
X105310067Y-140062264D01*
X105188862Y-139831000D01*
X103945667Y-139831000D01*
X103691667Y-139831000D01*
X102448472Y-139831000D01*
X102327267Y-140062264D01*
X63931000Y-140062264D01*
X63931000Y-137414000D01*
X102276440Y-137414000D01*
X102305281Y-137706826D01*
X102390695Y-137988399D01*
X102529400Y-138247898D01*
X102716066Y-138475351D01*
X102824588Y-138564413D01*
X102702965Y-138667990D01*
X102521495Y-138897512D01*
X102388289Y-139158027D01*
X102327267Y-139345736D01*
X102448472Y-139577000D01*
X103691667Y-139577000D01*
X103691667Y-139557000D01*
X103945667Y-139557000D01*
X103945667Y-139577000D01*
X105188862Y-139577000D01*
X105310067Y-139345736D01*
X105249045Y-139158027D01*
X105115839Y-138897512D01*
X104934369Y-138667990D01*
X104812746Y-138564413D01*
X104921268Y-138475351D01*
X105107934Y-138247898D01*
X105246639Y-137988399D01*
X105332053Y-137706826D01*
X105360894Y-137414000D01*
X105332053Y-137121174D01*
X105246639Y-136839601D01*
X105107934Y-136580102D01*
X105059217Y-136520740D01*
X105073161Y-136513287D01*
X105169852Y-136433935D01*
X105249204Y-136337244D01*
X105308169Y-136226930D01*
X105344479Y-136107232D01*
X105356739Y-135982750D01*
X105356739Y-134265250D01*
X105344479Y-134140768D01*
X105308169Y-134021070D01*
X105249204Y-133910756D01*
X105169852Y-133814065D01*
X105073161Y-133734713D01*
X104962847Y-133675748D01*
X104843149Y-133639438D01*
X104718667Y-133627178D01*
X102918667Y-133627178D01*
X102794185Y-133639438D01*
X102674487Y-133675748D01*
X102564173Y-133734713D01*
X102467482Y-133814065D01*
X102388130Y-133910756D01*
X102329165Y-134021070D01*
X102292855Y-134140768D01*
X102280595Y-134265250D01*
X102280595Y-135982750D01*
X102292855Y-136107232D01*
X102329165Y-136226930D01*
X102388130Y-136337244D01*
X102467482Y-136433935D01*
X102564173Y-136513287D01*
X102578117Y-136520740D01*
X102529400Y-136580102D01*
X102390695Y-136839601D01*
X102305281Y-137121174D01*
X102276440Y-137414000D01*
X63931000Y-137414000D01*
X63931000Y-130414665D01*
X67911000Y-130414665D01*
X67911000Y-130697335D01*
X67966147Y-130974574D01*
X68074320Y-131235727D01*
X68231363Y-131470759D01*
X68431241Y-131670637D01*
X68666273Y-131827680D01*
X68927426Y-131935853D01*
X69204665Y-131991000D01*
X69487335Y-131991000D01*
X69764574Y-131935853D01*
X70025727Y-131827680D01*
X70260759Y-131670637D01*
X70460637Y-131470759D01*
X70616000Y-131238241D01*
X70771363Y-131470759D01*
X70971241Y-131670637D01*
X71206273Y-131827680D01*
X71467426Y-131935853D01*
X71744665Y-131991000D01*
X72027335Y-131991000D01*
X72304574Y-131935853D01*
X72565727Y-131827680D01*
X72800759Y-131670637D01*
X73000637Y-131470759D01*
X73156000Y-131238241D01*
X73311363Y-131470759D01*
X73511241Y-131670637D01*
X73746273Y-131827680D01*
X74007426Y-131935853D01*
X74284665Y-131991000D01*
X74567335Y-131991000D01*
X74844574Y-131935853D01*
X75105727Y-131827680D01*
X75340759Y-131670637D01*
X75540637Y-131470759D01*
X75697680Y-131235727D01*
X75702067Y-131225135D01*
X75813615Y-131411131D01*
X76002586Y-131619519D01*
X76228580Y-131787037D01*
X76482913Y-131907246D01*
X76616961Y-131947904D01*
X76839000Y-131825915D01*
X76839000Y-130683000D01*
X76819000Y-130683000D01*
X76819000Y-130429000D01*
X76839000Y-130429000D01*
X76839000Y-129286085D01*
X77093000Y-129286085D01*
X77093000Y-130429000D01*
X77113000Y-130429000D01*
X77113000Y-130683000D01*
X77093000Y-130683000D01*
X77093000Y-131825915D01*
X77315039Y-131947904D01*
X77449087Y-131907246D01*
X77703420Y-131787037D01*
X77929414Y-131619519D01*
X78118385Y-131411131D01*
X78229933Y-131225135D01*
X78234320Y-131235727D01*
X78391363Y-131470759D01*
X78591241Y-131670637D01*
X78826273Y-131827680D01*
X79087426Y-131935853D01*
X79364665Y-131991000D01*
X79647335Y-131991000D01*
X79924574Y-131935853D01*
X80185727Y-131827680D01*
X80420759Y-131670637D01*
X80620637Y-131470759D01*
X80776000Y-131238241D01*
X80931363Y-131470759D01*
X81131241Y-131670637D01*
X81366273Y-131827680D01*
X81627426Y-131935853D01*
X81904665Y-131991000D01*
X82187335Y-131991000D01*
X82464574Y-131935853D01*
X82725727Y-131827680D01*
X82960759Y-131670637D01*
X83160637Y-131470759D01*
X83316000Y-131238241D01*
X83471363Y-131470759D01*
X83671241Y-131670637D01*
X83906273Y-131827680D01*
X84167426Y-131935853D01*
X84444665Y-131991000D01*
X84727335Y-131991000D01*
X85004574Y-131935853D01*
X85265727Y-131827680D01*
X85500759Y-131670637D01*
X85700637Y-131470759D01*
X85856000Y-131238241D01*
X86011363Y-131470759D01*
X86211241Y-131670637D01*
X86446273Y-131827680D01*
X86707426Y-131935853D01*
X86984665Y-131991000D01*
X87267335Y-131991000D01*
X87544574Y-131935853D01*
X87805727Y-131827680D01*
X88040759Y-131670637D01*
X88240637Y-131470759D01*
X88396000Y-131238241D01*
X88551363Y-131470759D01*
X88751241Y-131670637D01*
X88986273Y-131827680D01*
X89247426Y-131935853D01*
X89524665Y-131991000D01*
X89807335Y-131991000D01*
X90084574Y-131935853D01*
X90345727Y-131827680D01*
X90580759Y-131670637D01*
X90780637Y-131470759D01*
X90936000Y-131238241D01*
X91091363Y-131470759D01*
X91291241Y-131670637D01*
X91526273Y-131827680D01*
X91787426Y-131935853D01*
X92064665Y-131991000D01*
X92347335Y-131991000D01*
X92624574Y-131935853D01*
X92885727Y-131827680D01*
X93120759Y-131670637D01*
X93320637Y-131470759D01*
X93477680Y-131235727D01*
X93585853Y-130974574D01*
X93641000Y-130697335D01*
X93641000Y-130414665D01*
X94831000Y-130414665D01*
X94831000Y-130697335D01*
X94886147Y-130974574D01*
X94994320Y-131235727D01*
X95151363Y-131470759D01*
X95351241Y-131670637D01*
X95586273Y-131827680D01*
X95847426Y-131935853D01*
X96124665Y-131991000D01*
X96407335Y-131991000D01*
X96684574Y-131935853D01*
X96945727Y-131827680D01*
X97180759Y-131670637D01*
X97380637Y-131470759D01*
X97536000Y-131238241D01*
X97691363Y-131470759D01*
X97891241Y-131670637D01*
X98126273Y-131827680D01*
X98387426Y-131935853D01*
X98664665Y-131991000D01*
X98947335Y-131991000D01*
X99224574Y-131935853D01*
X99485727Y-131827680D01*
X99720759Y-131670637D01*
X99920637Y-131470759D01*
X100076000Y-131238241D01*
X100231363Y-131470759D01*
X100431241Y-131670637D01*
X100666273Y-131827680D01*
X100927426Y-131935853D01*
X101204665Y-131991000D01*
X101487335Y-131991000D01*
X101764574Y-131935853D01*
X102025727Y-131827680D01*
X102260759Y-131670637D01*
X102460637Y-131470759D01*
X102616000Y-131238241D01*
X102771363Y-131470759D01*
X102971241Y-131670637D01*
X103206273Y-131827680D01*
X103467426Y-131935853D01*
X103744665Y-131991000D01*
X104027335Y-131991000D01*
X104304574Y-131935853D01*
X104565727Y-131827680D01*
X104800759Y-131670637D01*
X105000637Y-131470759D01*
X105156000Y-131238241D01*
X105311363Y-131470759D01*
X105511241Y-131670637D01*
X105746273Y-131827680D01*
X106007426Y-131935853D01*
X106284665Y-131991000D01*
X106567335Y-131991000D01*
X106844574Y-131935853D01*
X107105727Y-131827680D01*
X107340759Y-131670637D01*
X107540637Y-131470759D01*
X107696000Y-131238241D01*
X107851363Y-131470759D01*
X108051241Y-131670637D01*
X108286273Y-131827680D01*
X108547426Y-131935853D01*
X108824665Y-131991000D01*
X109107335Y-131991000D01*
X109384574Y-131935853D01*
X109645727Y-131827680D01*
X109880759Y-131670637D01*
X110080637Y-131470759D01*
X110236000Y-131238241D01*
X110391363Y-131470759D01*
X110591241Y-131670637D01*
X110826273Y-131827680D01*
X111087426Y-131935853D01*
X111364665Y-131991000D01*
X111647335Y-131991000D01*
X111924574Y-131935853D01*
X112185727Y-131827680D01*
X112420759Y-131670637D01*
X112620637Y-131470759D01*
X112776000Y-131238241D01*
X112931363Y-131470759D01*
X113131241Y-131670637D01*
X113366273Y-131827680D01*
X113627426Y-131935853D01*
X113904665Y-131991000D01*
X114187335Y-131991000D01*
X114464574Y-131935853D01*
X114725727Y-131827680D01*
X114960759Y-131670637D01*
X115160637Y-131470759D01*
X115317680Y-131235727D01*
X115425853Y-130974574D01*
X115481000Y-130697335D01*
X115481000Y-130414665D01*
X115425853Y-130137426D01*
X115317680Y-129876273D01*
X115160637Y-129641241D01*
X114960759Y-129441363D01*
X114725727Y-129284320D01*
X114464574Y-129176147D01*
X114187335Y-129121000D01*
X113904665Y-129121000D01*
X113627426Y-129176147D01*
X113366273Y-129284320D01*
X113131241Y-129441363D01*
X112931363Y-129641241D01*
X112776000Y-129873759D01*
X112620637Y-129641241D01*
X112420759Y-129441363D01*
X112185727Y-129284320D01*
X111924574Y-129176147D01*
X111647335Y-129121000D01*
X111364665Y-129121000D01*
X111087426Y-129176147D01*
X110826273Y-129284320D01*
X110591241Y-129441363D01*
X110391363Y-129641241D01*
X110236000Y-129873759D01*
X110080637Y-129641241D01*
X109880759Y-129441363D01*
X109645727Y-129284320D01*
X109384574Y-129176147D01*
X109107335Y-129121000D01*
X108824665Y-129121000D01*
X108547426Y-129176147D01*
X108286273Y-129284320D01*
X108051241Y-129441363D01*
X107851363Y-129641241D01*
X107696000Y-129873759D01*
X107540637Y-129641241D01*
X107340759Y-129441363D01*
X107105727Y-129284320D01*
X106844574Y-129176147D01*
X106567335Y-129121000D01*
X106284665Y-129121000D01*
X106007426Y-129176147D01*
X105746273Y-129284320D01*
X105511241Y-129441363D01*
X105311363Y-129641241D01*
X105156000Y-129873759D01*
X105000637Y-129641241D01*
X104800759Y-129441363D01*
X104565727Y-129284320D01*
X104304574Y-129176147D01*
X104027335Y-129121000D01*
X103744665Y-129121000D01*
X103467426Y-129176147D01*
X103206273Y-129284320D01*
X102971241Y-129441363D01*
X102771363Y-129641241D01*
X102616000Y-129873759D01*
X102460637Y-129641241D01*
X102260759Y-129441363D01*
X102025727Y-129284320D01*
X101764574Y-129176147D01*
X101487335Y-129121000D01*
X101204665Y-129121000D01*
X100927426Y-129176147D01*
X100666273Y-129284320D01*
X100431241Y-129441363D01*
X100231363Y-129641241D01*
X100076000Y-129873759D01*
X99920637Y-129641241D01*
X99720759Y-129441363D01*
X99485727Y-129284320D01*
X99224574Y-129176147D01*
X98947335Y-129121000D01*
X98664665Y-129121000D01*
X98387426Y-129176147D01*
X98126273Y-129284320D01*
X97891241Y-129441363D01*
X97691363Y-129641241D01*
X97536000Y-129873759D01*
X97380637Y-129641241D01*
X97180759Y-129441363D01*
X96945727Y-129284320D01*
X96684574Y-129176147D01*
X96407335Y-129121000D01*
X96124665Y-129121000D01*
X95847426Y-129176147D01*
X95586273Y-129284320D01*
X95351241Y-129441363D01*
X95151363Y-129641241D01*
X94994320Y-129876273D01*
X94886147Y-130137426D01*
X94831000Y-130414665D01*
X93641000Y-130414665D01*
X93585853Y-130137426D01*
X93477680Y-129876273D01*
X93320637Y-129641241D01*
X93120759Y-129441363D01*
X92885727Y-129284320D01*
X92624574Y-129176147D01*
X92347335Y-129121000D01*
X92064665Y-129121000D01*
X91787426Y-129176147D01*
X91526273Y-129284320D01*
X91291241Y-129441363D01*
X91091363Y-129641241D01*
X90936000Y-129873759D01*
X90780637Y-129641241D01*
X90580759Y-129441363D01*
X90345727Y-129284320D01*
X90084574Y-129176147D01*
X89807335Y-129121000D01*
X89524665Y-129121000D01*
X89247426Y-129176147D01*
X88986273Y-129284320D01*
X88751241Y-129441363D01*
X88551363Y-129641241D01*
X88396000Y-129873759D01*
X88240637Y-129641241D01*
X88040759Y-129441363D01*
X87805727Y-129284320D01*
X87544574Y-129176147D01*
X87267335Y-129121000D01*
X86984665Y-129121000D01*
X86707426Y-129176147D01*
X86446273Y-129284320D01*
X86211241Y-129441363D01*
X86011363Y-129641241D01*
X85856000Y-129873759D01*
X85700637Y-129641241D01*
X85500759Y-129441363D01*
X85265727Y-129284320D01*
X85004574Y-129176147D01*
X84727335Y-129121000D01*
X84444665Y-129121000D01*
X84167426Y-129176147D01*
X83906273Y-129284320D01*
X83671241Y-129441363D01*
X83471363Y-129641241D01*
X83316000Y-129873759D01*
X83160637Y-129641241D01*
X82960759Y-129441363D01*
X82725727Y-129284320D01*
X82464574Y-129176147D01*
X82187335Y-129121000D01*
X81904665Y-129121000D01*
X81627426Y-129176147D01*
X81366273Y-129284320D01*
X81131241Y-129441363D01*
X80931363Y-129641241D01*
X80776000Y-129873759D01*
X80620637Y-129641241D01*
X80420759Y-129441363D01*
X80185727Y-129284320D01*
X79924574Y-129176147D01*
X79647335Y-129121000D01*
X79364665Y-129121000D01*
X79087426Y-129176147D01*
X78826273Y-129284320D01*
X78591241Y-129441363D01*
X78391363Y-129641241D01*
X78234320Y-129876273D01*
X78229933Y-129886865D01*
X78118385Y-129700869D01*
X77929414Y-129492481D01*
X77703420Y-129324963D01*
X77449087Y-129204754D01*
X77315039Y-129164096D01*
X77093000Y-129286085D01*
X76839000Y-129286085D01*
X76616961Y-129164096D01*
X76482913Y-129204754D01*
X76228580Y-129324963D01*
X76002586Y-129492481D01*
X75813615Y-129700869D01*
X75702067Y-129886865D01*
X75697680Y-129876273D01*
X75540637Y-129641241D01*
X75340759Y-129441363D01*
X75105727Y-129284320D01*
X74844574Y-129176147D01*
X74567335Y-129121000D01*
X74284665Y-129121000D01*
X74007426Y-129176147D01*
X73746273Y-129284320D01*
X73511241Y-129441363D01*
X73311363Y-129641241D01*
X73156000Y-129873759D01*
X73000637Y-129641241D01*
X72800759Y-129441363D01*
X72565727Y-129284320D01*
X72304574Y-129176147D01*
X72027335Y-129121000D01*
X71744665Y-129121000D01*
X71467426Y-129176147D01*
X71206273Y-129284320D01*
X70971241Y-129441363D01*
X70771363Y-129641241D01*
X70616000Y-129873759D01*
X70460637Y-129641241D01*
X70260759Y-129441363D01*
X70025727Y-129284320D01*
X69764574Y-129176147D01*
X69487335Y-129121000D01*
X69204665Y-129121000D01*
X68927426Y-129176147D01*
X68666273Y-129284320D01*
X68431241Y-129441363D01*
X68231363Y-129641241D01*
X68074320Y-129876273D01*
X67966147Y-130137426D01*
X67911000Y-130414665D01*
X63931000Y-130414665D01*
X63931000Y-128701000D01*
X114778264Y-128701000D01*
X115901001Y-129823737D01*
G37*
X115901001Y-129823737D02*
X115901000Y-140936361D01*
X115897687Y-140970000D01*
X115901000Y-141003639D01*
X115901000Y-141003646D01*
X115910912Y-141104282D01*
X115950081Y-141233405D01*
X116013688Y-141352406D01*
X116043525Y-141388762D01*
X116077840Y-141430576D01*
X116077846Y-141430582D01*
X116099289Y-141456710D01*
X116125418Y-141478154D01*
X118441001Y-143793737D01*
X118441000Y-175992264D01*
X116125418Y-178307846D01*
X116099290Y-178329289D01*
X116077847Y-178355417D01*
X116077840Y-178355424D01*
X116043371Y-178397426D01*
X116013689Y-178433593D01*
X115995854Y-178466960D01*
X115950082Y-178552594D01*
X115910912Y-178681717D01*
X115897687Y-178816000D01*
X115901001Y-178849649D01*
X115901000Y-180671000D01*
X63931000Y-180671000D01*
X63931000Y-178016000D01*
X77047928Y-178016000D01*
X77047928Y-179616000D01*
X77060188Y-179740482D01*
X77096498Y-179860180D01*
X77155463Y-179970494D01*
X77234815Y-180067185D01*
X77331506Y-180146537D01*
X77441820Y-180205502D01*
X77561518Y-180241812D01*
X77686000Y-180254072D01*
X79286000Y-180254072D01*
X79410482Y-180241812D01*
X79530180Y-180205502D01*
X79640494Y-180146537D01*
X79737185Y-180067185D01*
X79816537Y-179970494D01*
X79875502Y-179860180D01*
X79911812Y-179740482D01*
X79912643Y-179732039D01*
X80111241Y-179930637D01*
X80346273Y-180087680D01*
X80607426Y-180195853D01*
X80884665Y-180251000D01*
X81167335Y-180251000D01*
X81444574Y-180195853D01*
X81705727Y-180087680D01*
X81940759Y-179930637D01*
X82140637Y-179730759D01*
X82296000Y-179498241D01*
X82451363Y-179730759D01*
X82651241Y-179930637D01*
X82886273Y-180087680D01*
X83147426Y-180195853D01*
X83424665Y-180251000D01*
X83707335Y-180251000D01*
X83984574Y-180195853D01*
X84245727Y-180087680D01*
X84480759Y-179930637D01*
X84680637Y-179730759D01*
X84836000Y-179498241D01*
X84991363Y-179730759D01*
X85191241Y-179930637D01*
X85426273Y-180087680D01*
X85687426Y-180195853D01*
X85964665Y-180251000D01*
X86247335Y-180251000D01*
X86524574Y-180195853D01*
X86785727Y-180087680D01*
X87020759Y-179930637D01*
X87220637Y-179730759D01*
X87376000Y-179498241D01*
X87531363Y-179730759D01*
X87731241Y-179930637D01*
X87966273Y-180087680D01*
X88227426Y-180195853D01*
X88504665Y-180251000D01*
X88787335Y-180251000D01*
X89064574Y-180195853D01*
X89325727Y-180087680D01*
X89560759Y-179930637D01*
X89760637Y-179730759D01*
X89917680Y-179495727D01*
X89922067Y-179485135D01*
X90033615Y-179671131D01*
X90222586Y-179879519D01*
X90448580Y-180047037D01*
X90702913Y-180167246D01*
X90836961Y-180207904D01*
X91059000Y-180085915D01*
X91059000Y-178943000D01*
X91313000Y-178943000D01*
X91313000Y-180085915D01*
X91535039Y-180207904D01*
X91669087Y-180167246D01*
X91923420Y-180047037D01*
X92149414Y-179879519D01*
X92338385Y-179671131D01*
X92456000Y-179475018D01*
X92573615Y-179671131D01*
X92762586Y-179879519D01*
X92988580Y-180047037D01*
X93242913Y-180167246D01*
X93376961Y-180207904D01*
X93599000Y-180085915D01*
X93599000Y-178943000D01*
X91313000Y-178943000D01*
X91059000Y-178943000D01*
X91039000Y-178943000D01*
X91039000Y-178689000D01*
X91059000Y-178689000D01*
X91059000Y-177546085D01*
X91313000Y-177546085D01*
X91313000Y-178689000D01*
X93599000Y-178689000D01*
X93599000Y-177546085D01*
X93853000Y-177546085D01*
X93853000Y-178689000D01*
X93873000Y-178689000D01*
X93873000Y-178943000D01*
X93853000Y-178943000D01*
X93853000Y-180085915D01*
X94075039Y-180207904D01*
X94209087Y-180167246D01*
X94463420Y-180047037D01*
X94689414Y-179879519D01*
X94878385Y-179671131D01*
X94989933Y-179485135D01*
X94994320Y-179495727D01*
X95151363Y-179730759D01*
X95351241Y-179930637D01*
X95586273Y-180087680D01*
X95847426Y-180195853D01*
X96124665Y-180251000D01*
X96407335Y-180251000D01*
X96684574Y-180195853D01*
X96945727Y-180087680D01*
X97180759Y-179930637D01*
X97380637Y-179730759D01*
X97537680Y-179495727D01*
X97645853Y-179234574D01*
X97701000Y-178957335D01*
X97701000Y-178674665D01*
X99911000Y-178674665D01*
X99911000Y-178957335D01*
X99966147Y-179234574D01*
X100074320Y-179495727D01*
X100231363Y-179730759D01*
X100431241Y-179930637D01*
X100666273Y-180087680D01*
X100927426Y-180195853D01*
X101204665Y-180251000D01*
X101487335Y-180251000D01*
X101764574Y-180195853D01*
X102025727Y-180087680D01*
X102260759Y-179930637D01*
X102460637Y-179730759D01*
X102616000Y-179498241D01*
X102771363Y-179730759D01*
X102971241Y-179930637D01*
X103206273Y-180087680D01*
X103467426Y-180195853D01*
X103744665Y-180251000D01*
X104027335Y-180251000D01*
X104304574Y-180195853D01*
X104565727Y-180087680D01*
X104800759Y-179930637D01*
X105000637Y-179730759D01*
X105156000Y-179498241D01*
X105311363Y-179730759D01*
X105511241Y-179930637D01*
X105746273Y-180087680D01*
X106007426Y-180195853D01*
X106284665Y-180251000D01*
X106567335Y-180251000D01*
X106844574Y-180195853D01*
X107105727Y-180087680D01*
X107340759Y-179930637D01*
X107540637Y-179730759D01*
X107696000Y-179498241D01*
X107851363Y-179730759D01*
X108051241Y-179930637D01*
X108286273Y-180087680D01*
X108547426Y-180195853D01*
X108824665Y-180251000D01*
X109107335Y-180251000D01*
X109384574Y-180195853D01*
X109645727Y-180087680D01*
X109880759Y-179930637D01*
X110080637Y-179730759D01*
X110236000Y-179498241D01*
X110391363Y-179730759D01*
X110591241Y-179930637D01*
X110826273Y-180087680D01*
X111087426Y-180195853D01*
X111364665Y-180251000D01*
X111647335Y-180251000D01*
X111924574Y-180195853D01*
X112185727Y-180087680D01*
X112420759Y-179930637D01*
X112620637Y-179730759D01*
X112776000Y-179498241D01*
X112931363Y-179730759D01*
X113131241Y-179930637D01*
X113366273Y-180087680D01*
X113627426Y-180195853D01*
X113904665Y-180251000D01*
X114187335Y-180251000D01*
X114464574Y-180195853D01*
X114725727Y-180087680D01*
X114960759Y-179930637D01*
X115160637Y-179730759D01*
X115317680Y-179495727D01*
X115425853Y-179234574D01*
X115481000Y-178957335D01*
X115481000Y-178674665D01*
X115425853Y-178397426D01*
X115317680Y-178136273D01*
X115160637Y-177901241D01*
X114960759Y-177701363D01*
X114725727Y-177544320D01*
X114464574Y-177436147D01*
X114187335Y-177381000D01*
X113904665Y-177381000D01*
X113627426Y-177436147D01*
X113366273Y-177544320D01*
X113131241Y-177701363D01*
X112931363Y-177901241D01*
X112776000Y-178133759D01*
X112620637Y-177901241D01*
X112420759Y-177701363D01*
X112185727Y-177544320D01*
X111924574Y-177436147D01*
X111647335Y-177381000D01*
X111364665Y-177381000D01*
X111087426Y-177436147D01*
X110826273Y-177544320D01*
X110591241Y-177701363D01*
X110391363Y-177901241D01*
X110236000Y-178133759D01*
X110080637Y-177901241D01*
X109880759Y-177701363D01*
X109645727Y-177544320D01*
X109384574Y-177436147D01*
X109107335Y-177381000D01*
X108824665Y-177381000D01*
X108547426Y-177436147D01*
X108286273Y-177544320D01*
X108051241Y-177701363D01*
X107851363Y-177901241D01*
X107696000Y-178133759D01*
X107540637Y-177901241D01*
X107340759Y-177701363D01*
X107105727Y-177544320D01*
X106844574Y-177436147D01*
X106567335Y-177381000D01*
X106284665Y-177381000D01*
X106007426Y-177436147D01*
X105746273Y-177544320D01*
X105511241Y-177701363D01*
X105311363Y-177901241D01*
X105156000Y-178133759D01*
X105000637Y-177901241D01*
X104800759Y-177701363D01*
X104565727Y-177544320D01*
X104304574Y-177436147D01*
X104027335Y-177381000D01*
X103744665Y-177381000D01*
X103467426Y-177436147D01*
X103206273Y-177544320D01*
X102971241Y-177701363D01*
X102771363Y-177901241D01*
X102616000Y-178133759D01*
X102460637Y-177901241D01*
X102260759Y-177701363D01*
X102025727Y-177544320D01*
X101764574Y-177436147D01*
X101487335Y-177381000D01*
X101204665Y-177381000D01*
X100927426Y-177436147D01*
X100666273Y-177544320D01*
X100431241Y-177701363D01*
X100231363Y-177901241D01*
X100074320Y-178136273D01*
X99966147Y-178397426D01*
X99911000Y-178674665D01*
X97701000Y-178674665D01*
X97645853Y-178397426D01*
X97537680Y-178136273D01*
X97380637Y-177901241D01*
X97180759Y-177701363D01*
X96945727Y-177544320D01*
X96684574Y-177436147D01*
X96407335Y-177381000D01*
X96124665Y-177381000D01*
X95847426Y-177436147D01*
X95586273Y-177544320D01*
X95351241Y-177701363D01*
X95151363Y-177901241D01*
X94994320Y-178136273D01*
X94989933Y-178146865D01*
X94878385Y-177960869D01*
X94689414Y-177752481D01*
X94463420Y-177584963D01*
X94209087Y-177464754D01*
X94075039Y-177424096D01*
X93853000Y-177546085D01*
X93599000Y-177546085D01*
X93376961Y-177424096D01*
X93242913Y-177464754D01*
X92988580Y-177584963D01*
X92762586Y-177752481D01*
X92573615Y-177960869D01*
X92456000Y-178156982D01*
X92338385Y-177960869D01*
X92149414Y-177752481D01*
X91923420Y-177584963D01*
X91669087Y-177464754D01*
X91535039Y-177424096D01*
X91313000Y-177546085D01*
X91059000Y-177546085D01*
X90836961Y-177424096D01*
X90702913Y-177464754D01*
X90448580Y-177584963D01*
X90222586Y-177752481D01*
X90033615Y-177960869D01*
X89922067Y-178146865D01*
X89917680Y-178136273D01*
X89760637Y-177901241D01*
X89560759Y-177701363D01*
X89325727Y-177544320D01*
X89064574Y-177436147D01*
X88787335Y-177381000D01*
X88504665Y-177381000D01*
X88227426Y-177436147D01*
X87966273Y-177544320D01*
X87731241Y-177701363D01*
X87531363Y-177901241D01*
X87376000Y-178133759D01*
X87220637Y-177901241D01*
X87020759Y-177701363D01*
X86785727Y-177544320D01*
X86524574Y-177436147D01*
X86247335Y-177381000D01*
X85964665Y-177381000D01*
X85687426Y-177436147D01*
X85426273Y-177544320D01*
X85191241Y-177701363D01*
X84991363Y-177901241D01*
X84836000Y-178133759D01*
X84680637Y-177901241D01*
X84480759Y-177701363D01*
X84245727Y-177544320D01*
X83984574Y-177436147D01*
X83707335Y-177381000D01*
X83424665Y-177381000D01*
X83147426Y-177436147D01*
X82886273Y-177544320D01*
X82651241Y-177701363D01*
X82451363Y-177901241D01*
X82296000Y-178133759D01*
X82140637Y-177901241D01*
X81940759Y-177701363D01*
X81705727Y-177544320D01*
X81444574Y-177436147D01*
X81167335Y-177381000D01*
X80884665Y-177381000D01*
X80607426Y-177436147D01*
X80346273Y-177544320D01*
X80111241Y-177701363D01*
X79912643Y-177899961D01*
X79911812Y-177891518D01*
X79875502Y-177771820D01*
X79816537Y-177661506D01*
X79737185Y-177564815D01*
X79640494Y-177485463D01*
X79530180Y-177426498D01*
X79410482Y-177390188D01*
X79286000Y-177377928D01*
X77686000Y-177377928D01*
X77561518Y-177390188D01*
X77441820Y-177426498D01*
X77331506Y-177485463D01*
X77234815Y-177564815D01*
X77155463Y-177661506D01*
X77096498Y-177771820D01*
X77060188Y-177891518D01*
X77047928Y-178016000D01*
X63931000Y-178016000D01*
X63931000Y-171796967D01*
X67557000Y-171796967D01*
X67557000Y-172119033D01*
X67619832Y-172434912D01*
X67743082Y-172732463D01*
X67922013Y-173000252D01*
X68149748Y-173227987D01*
X68417537Y-173406918D01*
X68715088Y-173530168D01*
X69030967Y-173593000D01*
X69353033Y-173593000D01*
X69668912Y-173530168D01*
X69966463Y-173406918D01*
X70234252Y-173227987D01*
X70461987Y-173000252D01*
X70640918Y-172732463D01*
X70764168Y-172434912D01*
X70827000Y-172119033D01*
X70827000Y-171796967D01*
X74057000Y-171796967D01*
X74057000Y-172119033D01*
X74119832Y-172434912D01*
X74243082Y-172732463D01*
X74422013Y-173000252D01*
X74649748Y-173227987D01*
X74917537Y-173406918D01*
X75215088Y-173530168D01*
X75530967Y-173593000D01*
X75853033Y-173593000D01*
X76168912Y-173530168D01*
X76466463Y-173406918D01*
X76565617Y-173340665D01*
X84671000Y-173340665D01*
X84671000Y-173623335D01*
X84726147Y-173900574D01*
X84834320Y-174161727D01*
X84991363Y-174396759D01*
X85191241Y-174596637D01*
X85426273Y-174753680D01*
X85687426Y-174861853D01*
X85964665Y-174917000D01*
X86247335Y-174917000D01*
X86524574Y-174861853D01*
X86785727Y-174753680D01*
X87020759Y-174596637D01*
X87220637Y-174396759D01*
X87377680Y-174161727D01*
X87485853Y-173900574D01*
X87541000Y-173623335D01*
X87541000Y-173340665D01*
X87485853Y-173063426D01*
X87398145Y-172851679D01*
X89679000Y-172851679D01*
X89679000Y-174112322D01*
X89702657Y-174352516D01*
X89796148Y-174660715D01*
X89947970Y-174944752D01*
X90152287Y-175193714D01*
X90401249Y-175398031D01*
X90685286Y-175549852D01*
X90993485Y-175643343D01*
X91314000Y-175674911D01*
X91634516Y-175643343D01*
X91942715Y-175549852D01*
X92226752Y-175398031D01*
X92475714Y-175193714D01*
X92680031Y-174944752D01*
X92831852Y-174660715D01*
X92925343Y-174352516D01*
X92949000Y-174112322D01*
X92949000Y-172851679D01*
X93379000Y-172851679D01*
X93379000Y-174112322D01*
X93402657Y-174352516D01*
X93496148Y-174660715D01*
X93647970Y-174944752D01*
X93852287Y-175193714D01*
X94101249Y-175398031D01*
X94385286Y-175549852D01*
X94693485Y-175643343D01*
X95014000Y-175674911D01*
X95334516Y-175643343D01*
X95642715Y-175549852D01*
X95926752Y-175398031D01*
X96175714Y-175193714D01*
X96380031Y-174944752D01*
X96531852Y-174660715D01*
X96625343Y-174352516D01*
X96649000Y-174112322D01*
X96649000Y-172851679D01*
X97679000Y-172851679D01*
X97679000Y-174112322D01*
X97702657Y-174352516D01*
X97796148Y-174660715D01*
X97947970Y-174944752D01*
X98152287Y-175193714D01*
X98401249Y-175398031D01*
X98685286Y-175549852D01*
X98993485Y-175643343D01*
X99314000Y-175674911D01*
X99634516Y-175643343D01*
X99942715Y-175549852D01*
X100226752Y-175398031D01*
X100475714Y-175193714D01*
X100680031Y-174944752D01*
X100831852Y-174660715D01*
X100925343Y-174352516D01*
X100949000Y-174112322D01*
X100949000Y-172851679D01*
X101379000Y-172851679D01*
X101379000Y-174112322D01*
X101402657Y-174352516D01*
X101496148Y-174660715D01*
X101647970Y-174944752D01*
X101852287Y-175193714D01*
X102101249Y-175398031D01*
X102385286Y-175549852D01*
X102693485Y-175643343D01*
X103014000Y-175674911D01*
X103334516Y-175643343D01*
X103642715Y-175549852D01*
X103926752Y-175398031D01*
X104175714Y-175193714D01*
X104380031Y-174944752D01*
X104531852Y-174660715D01*
X104625343Y-174352516D01*
X104649000Y-174112322D01*
X104649000Y-172851678D01*
X104625343Y-172611484D01*
X104531852Y-172303285D01*
X104467024Y-172182000D01*
X110583928Y-172182000D01*
X110583928Y-174782000D01*
X110596188Y-174906482D01*
X110632498Y-175026180D01*
X110691463Y-175136494D01*
X110770815Y-175233185D01*
X110867506Y-175312537D01*
X110977820Y-175371502D01*
X111097518Y-175407812D01*
X111222000Y-175420072D01*
X113822000Y-175420072D01*
X113946482Y-175407812D01*
X114066180Y-175371502D01*
X114176494Y-175312537D01*
X114273185Y-175233185D01*
X114352537Y-175136494D01*
X114411502Y-175026180D01*
X114447812Y-174906482D01*
X114460072Y-174782000D01*
X114460072Y-172182000D01*
X114447812Y-172057518D01*
X114411502Y-171937820D01*
X114352537Y-171827506D01*
X114273185Y-171730815D01*
X114176494Y-171651463D01*
X114066180Y-171592498D01*
X113946482Y-171556188D01*
X113822000Y-171543928D01*
X111222000Y-171543928D01*
X111097518Y-171556188D01*
X110977820Y-171592498D01*
X110867506Y-171651463D01*
X110770815Y-171730815D01*
X110691463Y-171827506D01*
X110632498Y-171937820D01*
X110596188Y-172057518D01*
X110583928Y-172182000D01*
X104467024Y-172182000D01*
X104380031Y-172019248D01*
X104175714Y-171770286D01*
X103926751Y-171565969D01*
X103642714Y-171414148D01*
X103334515Y-171320657D01*
X103014000Y-171289089D01*
X102693484Y-171320657D01*
X102385285Y-171414148D01*
X102101248Y-171565969D01*
X101852286Y-171770286D01*
X101647969Y-172019249D01*
X101496148Y-172303286D01*
X101402657Y-172611485D01*
X101379000Y-172851679D01*
X100949000Y-172851679D01*
X100949000Y-172851678D01*
X100925343Y-172611484D01*
X100831852Y-172303285D01*
X100680031Y-172019248D01*
X100475714Y-171770286D01*
X100226751Y-171565969D01*
X99942714Y-171414148D01*
X99634515Y-171320657D01*
X99314000Y-171289089D01*
X98993484Y-171320657D01*
X98685285Y-171414148D01*
X98401248Y-171565969D01*
X98152286Y-171770286D01*
X97947969Y-172019249D01*
X97796148Y-172303286D01*
X97702657Y-172611485D01*
X97679000Y-172851679D01*
X96649000Y-172851679D01*
X96649000Y-172851678D01*
X96625343Y-172611484D01*
X96531852Y-172303285D01*
X96380031Y-172019248D01*
X96175714Y-171770286D01*
X95926751Y-171565969D01*
X95642714Y-171414148D01*
X95334515Y-171320657D01*
X95014000Y-171289089D01*
X94693484Y-171320657D01*
X94385285Y-171414148D01*
X94101248Y-171565969D01*
X93852286Y-171770286D01*
X93647969Y-172019249D01*
X93496148Y-172303286D01*
X93402657Y-172611485D01*
X93379000Y-172851679D01*
X92949000Y-172851679D01*
X92949000Y-172851678D01*
X92925343Y-172611484D01*
X92831852Y-172303285D01*
X92680031Y-172019248D01*
X92475714Y-171770286D01*
X92226751Y-171565969D01*
X91942714Y-171414148D01*
X91634515Y-171320657D01*
X91314000Y-171289089D01*
X90993484Y-171320657D01*
X90685285Y-171414148D01*
X90401248Y-171565969D01*
X90152286Y-171770286D01*
X89947969Y-172019249D01*
X89796148Y-172303286D01*
X89702657Y-172611485D01*
X89679000Y-172851679D01*
X87398145Y-172851679D01*
X87377680Y-172802273D01*
X87220637Y-172567241D01*
X87020759Y-172367363D01*
X86785727Y-172210320D01*
X86524574Y-172102147D01*
X86247335Y-172047000D01*
X85964665Y-172047000D01*
X85687426Y-172102147D01*
X85426273Y-172210320D01*
X85191241Y-172367363D01*
X84991363Y-172567241D01*
X84834320Y-172802273D01*
X84726147Y-173063426D01*
X84671000Y-173340665D01*
X76565617Y-173340665D01*
X76734252Y-173227987D01*
X76961987Y-173000252D01*
X77140918Y-172732463D01*
X77264168Y-172434912D01*
X77327000Y-172119033D01*
X77327000Y-171796967D01*
X77264168Y-171481088D01*
X77140918Y-171183537D01*
X76961987Y-170915748D01*
X76734252Y-170688013D01*
X76466463Y-170509082D01*
X76168912Y-170385832D01*
X75853033Y-170323000D01*
X75530967Y-170323000D01*
X75215088Y-170385832D01*
X74917537Y-170509082D01*
X74649748Y-170688013D01*
X74422013Y-170915748D01*
X74243082Y-171183537D01*
X74119832Y-171481088D01*
X74057000Y-171796967D01*
X70827000Y-171796967D01*
X70764168Y-171481088D01*
X70640918Y-171183537D01*
X70461987Y-170915748D01*
X70234252Y-170688013D01*
X69966463Y-170509082D01*
X69668912Y-170385832D01*
X69353033Y-170323000D01*
X69030967Y-170323000D01*
X68715088Y-170385832D01*
X68417537Y-170509082D01*
X68149748Y-170688013D01*
X67922013Y-170915748D01*
X67743082Y-171183537D01*
X67619832Y-171481088D01*
X67557000Y-171796967D01*
X63931000Y-171796967D01*
X63931000Y-168593413D01*
X68236192Y-168593413D01*
X68331956Y-168857814D01*
X68621571Y-168998704D01*
X68933108Y-169080384D01*
X69254595Y-169099718D01*
X69573675Y-169055961D01*
X69878088Y-168950795D01*
X70052044Y-168857814D01*
X70147808Y-168593413D01*
X74736192Y-168593413D01*
X74831956Y-168857814D01*
X75121571Y-168998704D01*
X75433108Y-169080384D01*
X75754595Y-169099718D01*
X76073675Y-169055961D01*
X76378088Y-168950795D01*
X76552044Y-168857814D01*
X76647808Y-168593413D01*
X75692000Y-167637605D01*
X74736192Y-168593413D01*
X70147808Y-168593413D01*
X69192000Y-167637605D01*
X68236192Y-168593413D01*
X63931000Y-168593413D01*
X63931000Y-167520595D01*
X67550282Y-167520595D01*
X67594039Y-167839675D01*
X67699205Y-168144088D01*
X67792186Y-168318044D01*
X68056587Y-168413808D01*
X69012395Y-167458000D01*
X69371605Y-167458000D01*
X70327413Y-168413808D01*
X70591814Y-168318044D01*
X70732704Y-168028429D01*
X70814384Y-167716892D01*
X70826189Y-167520595D01*
X74050282Y-167520595D01*
X74094039Y-167839675D01*
X74199205Y-168144088D01*
X74292186Y-168318044D01*
X74556587Y-168413808D01*
X75512395Y-167458000D01*
X75871605Y-167458000D01*
X76827413Y-168413808D01*
X77091814Y-168318044D01*
X77232704Y-168028429D01*
X77314384Y-167716892D01*
X77333718Y-167395405D01*
X77289961Y-167076325D01*
X77184795Y-166771912D01*
X77160529Y-166726512D01*
X91777783Y-166726512D01*
X91819213Y-167006130D01*
X91914397Y-167272292D01*
X91979616Y-167394309D01*
X91966815Y-167404815D01*
X91887463Y-167501506D01*
X91828498Y-167611820D01*
X91792188Y-167731518D01*
X91779928Y-167856000D01*
X91779928Y-169456000D01*
X91792188Y-169580482D01*
X91828498Y-169700180D01*
X91887463Y-169810494D01*
X91966815Y-169907185D01*
X92063506Y-169986537D01*
X92173820Y-170045502D01*
X92293518Y-170081812D01*
X92418000Y-170094072D01*
X94018000Y-170094072D01*
X94142482Y-170081812D01*
X94262180Y-170045502D01*
X94372494Y-169986537D01*
X94469185Y-169907185D01*
X94548537Y-169810494D01*
X94580217Y-169751224D01*
X111352381Y-169751224D01*
X111484317Y-170046312D01*
X111825045Y-170217159D01*
X112192557Y-170318250D01*
X112572729Y-170345701D01*
X112950951Y-170298457D01*
X113312690Y-170178333D01*
X113559683Y-170046312D01*
X113691619Y-169751224D01*
X112522000Y-168581605D01*
X111352381Y-169751224D01*
X94580217Y-169751224D01*
X94607502Y-169700180D01*
X94643812Y-169580482D01*
X94656072Y-169456000D01*
X94656072Y-167856000D01*
X94645410Y-167747740D01*
X99099000Y-167747740D01*
X99099000Y-168040260D01*
X99156068Y-168327158D01*
X99268010Y-168597411D01*
X99430525Y-168840632D01*
X99637368Y-169047475D01*
X99880589Y-169209990D01*
X100150842Y-169321932D01*
X100437740Y-169379000D01*
X100730260Y-169379000D01*
X101017158Y-169321932D01*
X101287411Y-169209990D01*
X101530632Y-169047475D01*
X101662487Y-168915620D01*
X101684498Y-168988180D01*
X101743463Y-169098494D01*
X101822815Y-169195185D01*
X101919506Y-169274537D01*
X102029820Y-169333502D01*
X102149518Y-169369812D01*
X102274000Y-169382072D01*
X102838250Y-169379000D01*
X102997000Y-169220250D01*
X102997000Y-168021000D01*
X103251000Y-168021000D01*
X103251000Y-169220250D01*
X103409750Y-169379000D01*
X103974000Y-169382072D01*
X104098482Y-169369812D01*
X104218180Y-169333502D01*
X104328494Y-169274537D01*
X104425185Y-169195185D01*
X104504537Y-169098494D01*
X104563502Y-168988180D01*
X104599812Y-168868482D01*
X104612072Y-168744000D01*
X104610487Y-168452729D01*
X110578299Y-168452729D01*
X110625543Y-168830951D01*
X110745667Y-169192690D01*
X110877688Y-169439683D01*
X111172776Y-169571619D01*
X112342395Y-168402000D01*
X112701605Y-168402000D01*
X113871224Y-169571619D01*
X114166312Y-169439683D01*
X114337159Y-169098955D01*
X114438250Y-168731443D01*
X114465701Y-168351271D01*
X114418457Y-167973049D01*
X114298333Y-167611310D01*
X114166312Y-167364317D01*
X113871224Y-167232381D01*
X112701605Y-168402000D01*
X112342395Y-168402000D01*
X111172776Y-167232381D01*
X110877688Y-167364317D01*
X110706841Y-167705045D01*
X110605750Y-168072557D01*
X110578299Y-168452729D01*
X104610487Y-168452729D01*
X104609000Y-168179750D01*
X104450250Y-168021000D01*
X103251000Y-168021000D01*
X102997000Y-168021000D01*
X102977000Y-168021000D01*
X102977000Y-167767000D01*
X102997000Y-167767000D01*
X102997000Y-166567750D01*
X103251000Y-166567750D01*
X103251000Y-167767000D01*
X104450250Y-167767000D01*
X104609000Y-167608250D01*
X104612024Y-167052776D01*
X111352381Y-167052776D01*
X112522000Y-168222395D01*
X113691619Y-167052776D01*
X113559683Y-166757688D01*
X113218955Y-166586841D01*
X112851443Y-166485750D01*
X112471271Y-166458299D01*
X112093049Y-166505543D01*
X111731310Y-166625667D01*
X111484317Y-166757688D01*
X111352381Y-167052776D01*
X104612024Y-167052776D01*
X104612072Y-167044000D01*
X104599812Y-166919518D01*
X104563502Y-166799820D01*
X104504537Y-166689506D01*
X104425185Y-166592815D01*
X104328494Y-166513463D01*
X104218180Y-166454498D01*
X104098482Y-166418188D01*
X103974000Y-166405928D01*
X103409750Y-166409000D01*
X103251000Y-166567750D01*
X102997000Y-166567750D01*
X102838250Y-166409000D01*
X102274000Y-166405928D01*
X102149518Y-166418188D01*
X102029820Y-166454498D01*
X101919506Y-166513463D01*
X101822815Y-166592815D01*
X101743463Y-166689506D01*
X101684498Y-166799820D01*
X101662487Y-166872380D01*
X101530632Y-166740525D01*
X101287411Y-166578010D01*
X101017158Y-166466068D01*
X100730260Y-166409000D01*
X100437740Y-166409000D01*
X100150842Y-166466068D01*
X99880589Y-166578010D01*
X99637368Y-166740525D01*
X99430525Y-166947368D01*
X99268010Y-167190589D01*
X99156068Y-167460842D01*
X99099000Y-167747740D01*
X94645410Y-167747740D01*
X94643812Y-167731518D01*
X94607502Y-167611820D01*
X94548537Y-167501506D01*
X94469185Y-167404815D01*
X94456242Y-167394193D01*
X94575571Y-167142004D01*
X94644300Y-166867816D01*
X94658217Y-166585488D01*
X94616787Y-166305870D01*
X94521603Y-166039708D01*
X94454671Y-165914486D01*
X94210702Y-165842903D01*
X93397605Y-166656000D01*
X93411748Y-166670143D01*
X93232143Y-166849748D01*
X93218000Y-166835605D01*
X93203858Y-166849748D01*
X93024253Y-166670143D01*
X93038395Y-166656000D01*
X92225298Y-165842903D01*
X91981329Y-165914486D01*
X91860429Y-166169996D01*
X91791700Y-166444184D01*
X91777783Y-166726512D01*
X77160529Y-166726512D01*
X77091814Y-166597956D01*
X76827413Y-166502192D01*
X75871605Y-167458000D01*
X75512395Y-167458000D01*
X74556587Y-166502192D01*
X74292186Y-166597956D01*
X74151296Y-166887571D01*
X74069616Y-167199108D01*
X74050282Y-167520595D01*
X70826189Y-167520595D01*
X70833718Y-167395405D01*
X70789961Y-167076325D01*
X70684795Y-166771912D01*
X70591814Y-166597956D01*
X70327413Y-166502192D01*
X69371605Y-167458000D01*
X69012395Y-167458000D01*
X68056587Y-166502192D01*
X67792186Y-166597956D01*
X67651296Y-166887571D01*
X67569616Y-167199108D01*
X67550282Y-167520595D01*
X63931000Y-167520595D01*
X63931000Y-166322587D01*
X68236192Y-166322587D01*
X69192000Y-167278395D01*
X70147808Y-166322587D01*
X74736192Y-166322587D01*
X75692000Y-167278395D01*
X76647808Y-166322587D01*
X76552044Y-166058186D01*
X76262429Y-165917296D01*
X75950892Y-165835616D01*
X75629405Y-165816282D01*
X75310325Y-165860039D01*
X75005912Y-165965205D01*
X74831956Y-166058186D01*
X74736192Y-166322587D01*
X70147808Y-166322587D01*
X70052044Y-166058186D01*
X69762429Y-165917296D01*
X69450892Y-165835616D01*
X69129405Y-165816282D01*
X68810325Y-165860039D01*
X68505912Y-165965205D01*
X68331956Y-166058186D01*
X68236192Y-166322587D01*
X63931000Y-166322587D01*
X63931000Y-165663298D01*
X92404903Y-165663298D01*
X93218000Y-166476395D01*
X94031097Y-165663298D01*
X93959514Y-165419329D01*
X93704004Y-165298429D01*
X93429816Y-165229700D01*
X93147488Y-165215783D01*
X92867870Y-165257213D01*
X92601708Y-165352397D01*
X92476486Y-165419329D01*
X92404903Y-165663298D01*
X63931000Y-165663298D01*
X63931000Y-163180665D01*
X84671000Y-163180665D01*
X84671000Y-163463335D01*
X84726147Y-163740574D01*
X84834320Y-164001727D01*
X84991363Y-164236759D01*
X85191241Y-164436637D01*
X85426273Y-164593680D01*
X85687426Y-164701853D01*
X85964665Y-164757000D01*
X86247335Y-164757000D01*
X86524574Y-164701853D01*
X86785727Y-164593680D01*
X87020759Y-164436637D01*
X87220637Y-164236759D01*
X87377680Y-164001727D01*
X87485853Y-163740574D01*
X87541000Y-163463335D01*
X87541000Y-163194000D01*
X100423089Y-163194000D01*
X100454657Y-163514516D01*
X100548148Y-163822715D01*
X100699969Y-164106752D01*
X100904286Y-164355714D01*
X101153248Y-164560031D01*
X101437285Y-164711852D01*
X101745484Y-164805343D01*
X101985678Y-164829000D01*
X103246322Y-164829000D01*
X103486516Y-164805343D01*
X103794715Y-164711852D01*
X104078752Y-164560031D01*
X104327714Y-164355714D01*
X104532031Y-164106752D01*
X104683852Y-163822715D01*
X104777343Y-163514516D01*
X104808911Y-163194000D01*
X104802748Y-163131419D01*
X110587000Y-163131419D01*
X110587000Y-163512581D01*
X110661361Y-163886419D01*
X110807225Y-164238566D01*
X111018987Y-164555491D01*
X111288509Y-164825013D01*
X111605434Y-165036775D01*
X111957581Y-165182639D01*
X112331419Y-165257000D01*
X112712581Y-165257000D01*
X113086419Y-165182639D01*
X113438566Y-165036775D01*
X113755491Y-164825013D01*
X114025013Y-164555491D01*
X114236775Y-164238566D01*
X114382639Y-163886419D01*
X114457000Y-163512581D01*
X114457000Y-163131419D01*
X114382639Y-162757581D01*
X114236775Y-162405434D01*
X114025013Y-162088509D01*
X113755491Y-161818987D01*
X113438566Y-161607225D01*
X113086419Y-161461361D01*
X112712581Y-161387000D01*
X112331419Y-161387000D01*
X111957581Y-161461361D01*
X111605434Y-161607225D01*
X111288509Y-161818987D01*
X111018987Y-162088509D01*
X110807225Y-162405434D01*
X110661361Y-162757581D01*
X110587000Y-163131419D01*
X104802748Y-163131419D01*
X104777343Y-162873484D01*
X104683852Y-162565285D01*
X104532031Y-162281248D01*
X104327714Y-162032286D01*
X104078752Y-161827969D01*
X103794715Y-161676148D01*
X103486516Y-161582657D01*
X103246322Y-161559000D01*
X101985678Y-161559000D01*
X101745484Y-161582657D01*
X101437285Y-161676148D01*
X101153248Y-161827969D01*
X100904286Y-162032286D01*
X100699969Y-162281248D01*
X100548148Y-162565285D01*
X100454657Y-162873484D01*
X100423089Y-163194000D01*
X87541000Y-163194000D01*
X87541000Y-163180665D01*
X87485853Y-162903426D01*
X87377680Y-162642273D01*
X87220637Y-162407241D01*
X87020759Y-162207363D01*
X86785727Y-162050320D01*
X86524574Y-161942147D01*
X86247335Y-161887000D01*
X85964665Y-161887000D01*
X85687426Y-161942147D01*
X85426273Y-162050320D01*
X85191241Y-162207363D01*
X84991363Y-162407241D01*
X84834320Y-162642273D01*
X84726147Y-162903426D01*
X84671000Y-163180665D01*
X63931000Y-163180665D01*
X63931000Y-157826967D01*
X67453000Y-157826967D01*
X67453000Y-158149033D01*
X67515832Y-158464912D01*
X67639082Y-158762463D01*
X67818013Y-159030252D01*
X68045748Y-159257987D01*
X68313537Y-159436918D01*
X68611088Y-159560168D01*
X68926967Y-159623000D01*
X69249033Y-159623000D01*
X69564912Y-159560168D01*
X69862463Y-159436918D01*
X70130252Y-159257987D01*
X70357987Y-159030252D01*
X70536918Y-158762463D01*
X70660168Y-158464912D01*
X70723000Y-158149033D01*
X70723000Y-157826967D01*
X73953000Y-157826967D01*
X73953000Y-158149033D01*
X74015832Y-158464912D01*
X74139082Y-158762463D01*
X74318013Y-159030252D01*
X74545748Y-159257987D01*
X74813537Y-159436918D01*
X75111088Y-159560168D01*
X75426967Y-159623000D01*
X75749033Y-159623000D01*
X76064912Y-159560168D01*
X76224655Y-159494000D01*
X100423089Y-159494000D01*
X100454657Y-159814516D01*
X100548148Y-160122715D01*
X100699969Y-160406752D01*
X100904286Y-160655714D01*
X101153248Y-160860031D01*
X101437285Y-161011852D01*
X101745484Y-161105343D01*
X101985678Y-161129000D01*
X103246322Y-161129000D01*
X103486516Y-161105343D01*
X103794715Y-161011852D01*
X104078752Y-160860031D01*
X104327714Y-160655714D01*
X104532031Y-160406752D01*
X104683852Y-160122715D01*
X104777343Y-159814516D01*
X104799335Y-159591224D01*
X111352381Y-159591224D01*
X111484317Y-159886312D01*
X111825045Y-160057159D01*
X112192557Y-160158250D01*
X112572729Y-160185701D01*
X112950951Y-160138457D01*
X113312690Y-160018333D01*
X113559683Y-159886312D01*
X113691619Y-159591224D01*
X112522000Y-158421605D01*
X111352381Y-159591224D01*
X104799335Y-159591224D01*
X104808911Y-159494000D01*
X104777343Y-159173484D01*
X104683852Y-158865285D01*
X104532031Y-158581248D01*
X104327714Y-158332286D01*
X104279514Y-158292729D01*
X110578299Y-158292729D01*
X110625543Y-158670951D01*
X110745667Y-159032690D01*
X110877688Y-159279683D01*
X111172776Y-159411619D01*
X112342395Y-158242000D01*
X112701605Y-158242000D01*
X113871224Y-159411619D01*
X114166312Y-159279683D01*
X114337159Y-158938955D01*
X114438250Y-158571443D01*
X114465701Y-158191271D01*
X114418457Y-157813049D01*
X114298333Y-157451310D01*
X114166312Y-157204317D01*
X113871224Y-157072381D01*
X112701605Y-158242000D01*
X112342395Y-158242000D01*
X111172776Y-157072381D01*
X110877688Y-157204317D01*
X110706841Y-157545045D01*
X110605750Y-157912557D01*
X110578299Y-158292729D01*
X104279514Y-158292729D01*
X104078752Y-158127969D01*
X103794715Y-157976148D01*
X103486516Y-157882657D01*
X103246322Y-157859000D01*
X101985678Y-157859000D01*
X101745484Y-157882657D01*
X101437285Y-157976148D01*
X101153248Y-158127969D01*
X100904286Y-158332286D01*
X100699969Y-158581248D01*
X100548148Y-158865285D01*
X100454657Y-159173484D01*
X100423089Y-159494000D01*
X76224655Y-159494000D01*
X76362463Y-159436918D01*
X76630252Y-159257987D01*
X76857987Y-159030252D01*
X77036918Y-158762463D01*
X77160168Y-158464912D01*
X77223000Y-158149033D01*
X77223000Y-157826967D01*
X77160168Y-157511088D01*
X77036918Y-157213537D01*
X76857987Y-156945748D01*
X76805015Y-156892776D01*
X111352381Y-156892776D01*
X112522000Y-158062395D01*
X113691619Y-156892776D01*
X113559683Y-156597688D01*
X113218955Y-156426841D01*
X112851443Y-156325750D01*
X112471271Y-156298299D01*
X112093049Y-156345543D01*
X111731310Y-156465667D01*
X111484317Y-156597688D01*
X111352381Y-156892776D01*
X76805015Y-156892776D01*
X76630252Y-156718013D01*
X76362463Y-156539082D01*
X76064912Y-156415832D01*
X75749033Y-156353000D01*
X75426967Y-156353000D01*
X75111088Y-156415832D01*
X74813537Y-156539082D01*
X74545748Y-156718013D01*
X74318013Y-156945748D01*
X74139082Y-157213537D01*
X74015832Y-157511088D01*
X73953000Y-157826967D01*
X70723000Y-157826967D01*
X70660168Y-157511088D01*
X70536918Y-157213537D01*
X70357987Y-156945748D01*
X70130252Y-156718013D01*
X69862463Y-156539082D01*
X69564912Y-156415832D01*
X69249033Y-156353000D01*
X68926967Y-156353000D01*
X68611088Y-156415832D01*
X68313537Y-156539082D01*
X68045748Y-156718013D01*
X67818013Y-156945748D01*
X67639082Y-157213537D01*
X67515832Y-157511088D01*
X67453000Y-157826967D01*
X63931000Y-157826967D01*
X63931000Y-155194000D01*
X100423089Y-155194000D01*
X100454657Y-155514516D01*
X100548148Y-155822715D01*
X100699969Y-156106752D01*
X100904286Y-156355714D01*
X101153248Y-156560031D01*
X101437285Y-156711852D01*
X101745484Y-156805343D01*
X101985678Y-156829000D01*
X103246322Y-156829000D01*
X103486516Y-156805343D01*
X103794715Y-156711852D01*
X104078752Y-156560031D01*
X104327714Y-156355714D01*
X104532031Y-156106752D01*
X104683852Y-155822715D01*
X104777343Y-155514516D01*
X104808911Y-155194000D01*
X104777343Y-154873484D01*
X104683852Y-154565285D01*
X104532031Y-154281248D01*
X104327714Y-154032286D01*
X104078752Y-153827969D01*
X103794715Y-153676148D01*
X103486516Y-153582657D01*
X103246322Y-153559000D01*
X101985678Y-153559000D01*
X101745484Y-153582657D01*
X101437285Y-153676148D01*
X101153248Y-153827969D01*
X100904286Y-154032286D01*
X100699969Y-154281248D01*
X100548148Y-154565285D01*
X100454657Y-154873484D01*
X100423089Y-155194000D01*
X63931000Y-155194000D01*
X63931000Y-154623413D01*
X68132192Y-154623413D01*
X68227956Y-154887814D01*
X68517571Y-155028704D01*
X68829108Y-155110384D01*
X69150595Y-155129718D01*
X69469675Y-155085961D01*
X69774088Y-154980795D01*
X69948044Y-154887814D01*
X70043808Y-154623413D01*
X74632192Y-154623413D01*
X74727956Y-154887814D01*
X75017571Y-155028704D01*
X75329108Y-155110384D01*
X75650595Y-155129718D01*
X75969675Y-155085961D01*
X76274088Y-154980795D01*
X76448044Y-154887814D01*
X76543808Y-154623413D01*
X75588000Y-153667605D01*
X74632192Y-154623413D01*
X70043808Y-154623413D01*
X69088000Y-153667605D01*
X68132192Y-154623413D01*
X63931000Y-154623413D01*
X63931000Y-153550595D01*
X67446282Y-153550595D01*
X67490039Y-153869675D01*
X67595205Y-154174088D01*
X67688186Y-154348044D01*
X67952587Y-154443808D01*
X68908395Y-153488000D01*
X69267605Y-153488000D01*
X70223413Y-154443808D01*
X70487814Y-154348044D01*
X70628704Y-154058429D01*
X70710384Y-153746892D01*
X70722189Y-153550595D01*
X73946282Y-153550595D01*
X73990039Y-153869675D01*
X74095205Y-154174088D01*
X74188186Y-154348044D01*
X74452587Y-154443808D01*
X75408395Y-153488000D01*
X75767605Y-153488000D01*
X76723413Y-154443808D01*
X76987814Y-154348044D01*
X77128704Y-154058429D01*
X77210384Y-153746892D01*
X77229718Y-153425405D01*
X77185961Y-153106325D01*
X77080795Y-152801912D01*
X76987814Y-152627956D01*
X76723413Y-152532192D01*
X75767605Y-153488000D01*
X75408395Y-153488000D01*
X74452587Y-152532192D01*
X74188186Y-152627956D01*
X74047296Y-152917571D01*
X73965616Y-153229108D01*
X73946282Y-153550595D01*
X70722189Y-153550595D01*
X70729718Y-153425405D01*
X70685961Y-153106325D01*
X70580795Y-152801912D01*
X70487814Y-152627956D01*
X70223413Y-152532192D01*
X69267605Y-153488000D01*
X68908395Y-153488000D01*
X67952587Y-152532192D01*
X67688186Y-152627956D01*
X67547296Y-152917571D01*
X67465616Y-153229108D01*
X67446282Y-153550595D01*
X63931000Y-153550595D01*
X63931000Y-152352587D01*
X68132192Y-152352587D01*
X69088000Y-153308395D01*
X70043808Y-152352587D01*
X74632192Y-152352587D01*
X75588000Y-153308395D01*
X76543808Y-152352587D01*
X76448044Y-152088186D01*
X76158429Y-151947296D01*
X75846892Y-151865616D01*
X75525405Y-151846282D01*
X75206325Y-151890039D01*
X74901912Y-151995205D01*
X74727956Y-152088186D01*
X74632192Y-152352587D01*
X70043808Y-152352587D01*
X69948044Y-152088186D01*
X69658429Y-151947296D01*
X69346892Y-151865616D01*
X69025405Y-151846282D01*
X68706325Y-151890039D01*
X68401912Y-151995205D01*
X68227956Y-152088186D01*
X68132192Y-152352587D01*
X63931000Y-152352587D01*
X63931000Y-151494000D01*
X100423089Y-151494000D01*
X100454657Y-151814516D01*
X100548148Y-152122715D01*
X100699969Y-152406752D01*
X100904286Y-152655714D01*
X101153248Y-152860031D01*
X101437285Y-153011852D01*
X101745484Y-153105343D01*
X101985678Y-153129000D01*
X103246322Y-153129000D01*
X103486516Y-153105343D01*
X103794715Y-153011852D01*
X104078752Y-152860031D01*
X104327714Y-152655714D01*
X104532031Y-152406752D01*
X104683852Y-152122715D01*
X104777343Y-151814516D01*
X104808911Y-151494000D01*
X104777343Y-151173484D01*
X104683852Y-150865285D01*
X104532031Y-150581248D01*
X104327714Y-150332286D01*
X104078752Y-150127969D01*
X103794715Y-149976148D01*
X103486516Y-149882657D01*
X103246322Y-149859000D01*
X101985678Y-149859000D01*
X101745484Y-149882657D01*
X101437285Y-149976148D01*
X101153248Y-150127969D01*
X100904286Y-150332286D01*
X100699969Y-150581248D01*
X100548148Y-150865285D01*
X100454657Y-151173484D01*
X100423089Y-151494000D01*
X63931000Y-151494000D01*
X63931000Y-149830000D01*
X110583928Y-149830000D01*
X110583928Y-152430000D01*
X110596188Y-152554482D01*
X110632498Y-152674180D01*
X110691463Y-152784494D01*
X110770815Y-152881185D01*
X110867506Y-152960537D01*
X110977820Y-153019502D01*
X111097518Y-153055812D01*
X111222000Y-153068072D01*
X113822000Y-153068072D01*
X113946482Y-153055812D01*
X114066180Y-153019502D01*
X114176494Y-152960537D01*
X114273185Y-152881185D01*
X114352537Y-152784494D01*
X114411502Y-152674180D01*
X114447812Y-152554482D01*
X114460072Y-152430000D01*
X114460072Y-149830000D01*
X114447812Y-149705518D01*
X114411502Y-149585820D01*
X114352537Y-149475506D01*
X114273185Y-149378815D01*
X114176494Y-149299463D01*
X114066180Y-149240498D01*
X113946482Y-149204188D01*
X113822000Y-149191928D01*
X111222000Y-149191928D01*
X111097518Y-149204188D01*
X110977820Y-149240498D01*
X110867506Y-149299463D01*
X110770815Y-149378815D01*
X110691463Y-149475506D01*
X110632498Y-149585820D01*
X110596188Y-149705518D01*
X110583928Y-149830000D01*
X63931000Y-149830000D01*
X63931000Y-146351336D01*
X73695000Y-146351336D01*
X73695000Y-147272665D01*
X73712870Y-147454102D01*
X73783489Y-147686901D01*
X73898168Y-147901449D01*
X74052499Y-148089502D01*
X74240552Y-148243833D01*
X74455100Y-148358511D01*
X74687899Y-148429130D01*
X74930000Y-148452975D01*
X75172102Y-148429130D01*
X75404901Y-148358511D01*
X75619449Y-148243833D01*
X75807502Y-148089502D01*
X75961833Y-147901449D01*
X76076511Y-147686901D01*
X76147130Y-147454101D01*
X76165000Y-147272664D01*
X76165000Y-146351336D01*
X76235000Y-146351336D01*
X76235000Y-147272665D01*
X76252870Y-147454102D01*
X76323489Y-147686901D01*
X76438168Y-147901449D01*
X76592499Y-148089502D01*
X76780552Y-148243833D01*
X76995100Y-148358511D01*
X77227899Y-148429130D01*
X77470000Y-148452975D01*
X77712102Y-148429130D01*
X77944901Y-148358511D01*
X78159449Y-148243833D01*
X78347502Y-148089502D01*
X78501833Y-147901449D01*
X78616511Y-147686901D01*
X78687130Y-147454101D01*
X78705000Y-147272664D01*
X78705000Y-146351336D01*
X78775000Y-146351336D01*
X78775000Y-147272665D01*
X78792870Y-147454102D01*
X78863489Y-147686901D01*
X78978168Y-147901449D01*
X79132499Y-148089502D01*
X79320552Y-148243833D01*
X79535100Y-148358511D01*
X79767899Y-148429130D01*
X80010000Y-148452975D01*
X80252102Y-148429130D01*
X80484901Y-148358511D01*
X80699449Y-148243833D01*
X80887502Y-148089502D01*
X81041833Y-147901449D01*
X81156511Y-147686901D01*
X81227130Y-147454101D01*
X81245000Y-147272664D01*
X81245000Y-146351336D01*
X81315000Y-146351336D01*
X81315000Y-147272665D01*
X81332870Y-147454102D01*
X81403489Y-147686901D01*
X81518168Y-147901449D01*
X81672499Y-148089502D01*
X81860552Y-148243833D01*
X82075100Y-148358511D01*
X82307899Y-148429130D01*
X82550000Y-148452975D01*
X82792102Y-148429130D01*
X83024901Y-148358511D01*
X83239449Y-148243833D01*
X83427502Y-148089502D01*
X83581833Y-147901449D01*
X83696511Y-147686901D01*
X83767130Y-147454101D01*
X83785000Y-147272664D01*
X83785000Y-146351336D01*
X83855000Y-146351336D01*
X83855000Y-147272665D01*
X83872870Y-147454102D01*
X83943489Y-147686901D01*
X84058168Y-147901449D01*
X84212499Y-148089502D01*
X84400552Y-148243833D01*
X84615100Y-148358511D01*
X84847899Y-148429130D01*
X85090000Y-148452975D01*
X85332102Y-148429130D01*
X85564901Y-148358511D01*
X85779449Y-148243833D01*
X85967502Y-148089502D01*
X86121833Y-147901449D01*
X86236511Y-147686901D01*
X86307130Y-147454101D01*
X86325000Y-147272664D01*
X86325000Y-146351336D01*
X86395000Y-146351336D01*
X86395000Y-147272665D01*
X86412870Y-147454102D01*
X86483489Y-147686901D01*
X86598168Y-147901449D01*
X86752499Y-148089502D01*
X86940552Y-148243833D01*
X87155100Y-148358511D01*
X87387899Y-148429130D01*
X87630000Y-148452975D01*
X87872102Y-148429130D01*
X88104901Y-148358511D01*
X88319449Y-148243833D01*
X88507502Y-148089502D01*
X88661833Y-147901449D01*
X88776511Y-147686901D01*
X88847130Y-147454101D01*
X88865000Y-147272664D01*
X88865000Y-146351336D01*
X88935000Y-146351336D01*
X88935000Y-147272665D01*
X88952870Y-147454102D01*
X89023489Y-147686901D01*
X89138168Y-147901449D01*
X89292499Y-148089502D01*
X89480552Y-148243833D01*
X89695100Y-148358511D01*
X89927899Y-148429130D01*
X90170000Y-148452975D01*
X90412102Y-148429130D01*
X90644901Y-148358511D01*
X90859449Y-148243833D01*
X91047502Y-148089502D01*
X91201833Y-147901449D01*
X91316511Y-147686901D01*
X91387130Y-147454101D01*
X91405000Y-147272664D01*
X91405000Y-146939000D01*
X91475000Y-146939000D01*
X91475000Y-147339000D01*
X91523507Y-147577496D01*
X91617610Y-147801946D01*
X91753693Y-148003725D01*
X91926526Y-148175078D01*
X92129467Y-148309421D01*
X92354718Y-148401591D01*
X92392391Y-148405462D01*
X92583000Y-148280731D01*
X92583000Y-146939000D01*
X92837000Y-146939000D01*
X92837000Y-148280731D01*
X93027609Y-148405462D01*
X93065282Y-148401591D01*
X93290533Y-148309421D01*
X93493474Y-148175078D01*
X93666307Y-148003725D01*
X93802390Y-147801946D01*
X93896493Y-147577496D01*
X93945000Y-147339000D01*
X93945000Y-146939000D01*
X92837000Y-146939000D01*
X92583000Y-146939000D01*
X91475000Y-146939000D01*
X91405000Y-146939000D01*
X91405000Y-146351335D01*
X91398467Y-146285000D01*
X91475000Y-146285000D01*
X91475000Y-146685000D01*
X92583000Y-146685000D01*
X92583000Y-145343269D01*
X92837000Y-145343269D01*
X92837000Y-146685000D01*
X93945000Y-146685000D01*
X93945000Y-146285000D01*
X93896493Y-146046504D01*
X93818056Y-145859419D01*
X110587000Y-145859419D01*
X110587000Y-146240581D01*
X110661361Y-146614419D01*
X110807225Y-146966566D01*
X111018987Y-147283491D01*
X111288509Y-147553013D01*
X111605434Y-147764775D01*
X111957581Y-147910639D01*
X112331419Y-147985000D01*
X112712581Y-147985000D01*
X113086419Y-147910639D01*
X113438566Y-147764775D01*
X113755491Y-147553013D01*
X114025013Y-147283491D01*
X114236775Y-146966566D01*
X114382639Y-146614419D01*
X114457000Y-146240581D01*
X114457000Y-145859419D01*
X114382639Y-145485581D01*
X114236775Y-145133434D01*
X114025013Y-144816509D01*
X113755491Y-144546987D01*
X113438566Y-144335225D01*
X113086419Y-144189361D01*
X112712581Y-144115000D01*
X112331419Y-144115000D01*
X111957581Y-144189361D01*
X111605434Y-144335225D01*
X111288509Y-144546987D01*
X111018987Y-144816509D01*
X110807225Y-145133434D01*
X110661361Y-145485581D01*
X110587000Y-145859419D01*
X93818056Y-145859419D01*
X93802390Y-145822054D01*
X93666307Y-145620275D01*
X93493474Y-145448922D01*
X93290533Y-145314579D01*
X93065282Y-145222409D01*
X93027609Y-145218538D01*
X92837000Y-145343269D01*
X92583000Y-145343269D01*
X92392391Y-145218538D01*
X92354718Y-145222409D01*
X92129467Y-145314579D01*
X91926526Y-145448922D01*
X91753693Y-145620275D01*
X91617610Y-145822054D01*
X91523507Y-146046504D01*
X91475000Y-146285000D01*
X91398467Y-146285000D01*
X91387130Y-146169898D01*
X91316511Y-145937099D01*
X91201833Y-145722551D01*
X91047502Y-145534498D01*
X90859448Y-145380167D01*
X90644900Y-145265489D01*
X90412101Y-145194870D01*
X90170000Y-145171025D01*
X89927898Y-145194870D01*
X89695099Y-145265489D01*
X89480551Y-145380167D01*
X89292498Y-145534498D01*
X89138167Y-145722552D01*
X89023489Y-145937100D01*
X88952870Y-146169899D01*
X88935000Y-146351336D01*
X88865000Y-146351336D01*
X88865000Y-146351335D01*
X88847130Y-146169898D01*
X88776511Y-145937099D01*
X88661833Y-145722551D01*
X88507502Y-145534498D01*
X88319448Y-145380167D01*
X88104900Y-145265489D01*
X87872101Y-145194870D01*
X87630000Y-145171025D01*
X87387898Y-145194870D01*
X87155099Y-145265489D01*
X86940551Y-145380167D01*
X86752498Y-145534498D01*
X86598167Y-145722552D01*
X86483489Y-145937100D01*
X86412870Y-146169899D01*
X86395000Y-146351336D01*
X86325000Y-146351336D01*
X86325000Y-146351335D01*
X86307130Y-146169898D01*
X86236511Y-145937099D01*
X86121833Y-145722551D01*
X85967502Y-145534498D01*
X85779448Y-145380167D01*
X85564900Y-145265489D01*
X85332101Y-145194870D01*
X85090000Y-145171025D01*
X84847898Y-145194870D01*
X84615099Y-145265489D01*
X84400551Y-145380167D01*
X84212498Y-145534498D01*
X84058167Y-145722552D01*
X83943489Y-145937100D01*
X83872870Y-146169899D01*
X83855000Y-146351336D01*
X83785000Y-146351336D01*
X83785000Y-146351335D01*
X83767130Y-146169898D01*
X83696511Y-145937099D01*
X83581833Y-145722551D01*
X83427502Y-145534498D01*
X83239448Y-145380167D01*
X83024900Y-145265489D01*
X82792101Y-145194870D01*
X82550000Y-145171025D01*
X82307898Y-145194870D01*
X82075099Y-145265489D01*
X81860551Y-145380167D01*
X81672498Y-145534498D01*
X81518167Y-145722552D01*
X81403489Y-145937100D01*
X81332870Y-146169899D01*
X81315000Y-146351336D01*
X81245000Y-146351336D01*
X81245000Y-146351335D01*
X81227130Y-146169898D01*
X81156511Y-145937099D01*
X81041833Y-145722551D01*
X80887502Y-145534498D01*
X80699448Y-145380167D01*
X80484900Y-145265489D01*
X80252101Y-145194870D01*
X80010000Y-145171025D01*
X79767898Y-145194870D01*
X79535099Y-145265489D01*
X79320551Y-145380167D01*
X79132498Y-145534498D01*
X78978167Y-145722552D01*
X78863489Y-145937100D01*
X78792870Y-146169899D01*
X78775000Y-146351336D01*
X78705000Y-146351336D01*
X78705000Y-146351335D01*
X78687130Y-146169898D01*
X78616511Y-145937099D01*
X78501833Y-145722551D01*
X78347502Y-145534498D01*
X78159448Y-145380167D01*
X77944900Y-145265489D01*
X77712101Y-145194870D01*
X77470000Y-145171025D01*
X77227898Y-145194870D01*
X76995099Y-145265489D01*
X76780551Y-145380167D01*
X76592498Y-145534498D01*
X76438167Y-145722552D01*
X76323489Y-145937100D01*
X76252870Y-146169899D01*
X76235000Y-146351336D01*
X76165000Y-146351336D01*
X76165000Y-146351335D01*
X76147130Y-146169898D01*
X76076511Y-145937099D01*
X75961833Y-145722551D01*
X75807502Y-145534498D01*
X75619448Y-145380167D01*
X75404900Y-145265489D01*
X75172101Y-145194870D01*
X74930000Y-145171025D01*
X74687898Y-145194870D01*
X74455099Y-145265489D01*
X74240551Y-145380167D01*
X74052498Y-145534498D01*
X73898167Y-145722552D01*
X73783489Y-145937100D01*
X73712870Y-146169899D01*
X73695000Y-146351336D01*
X63931000Y-146351336D01*
X63931000Y-140062264D01*
X102327267Y-140062264D01*
X102388289Y-140249973D01*
X102521495Y-140510488D01*
X102702965Y-140740010D01*
X102925726Y-140929718D01*
X103181217Y-141072323D01*
X103459619Y-141162344D01*
X103691667Y-141035354D01*
X103691667Y-139831000D01*
X103945667Y-139831000D01*
X103945667Y-141035354D01*
X104177715Y-141162344D01*
X104456117Y-141072323D01*
X104711608Y-140929718D01*
X104934369Y-140740010D01*
X105115839Y-140510488D01*
X105249045Y-140249973D01*
X105310067Y-140062264D01*
X105188862Y-139831000D01*
X103945667Y-139831000D01*
X103691667Y-139831000D01*
X102448472Y-139831000D01*
X102327267Y-140062264D01*
X63931000Y-140062264D01*
X63931000Y-137414000D01*
X102276440Y-137414000D01*
X102305281Y-137706826D01*
X102390695Y-137988399D01*
X102529400Y-138247898D01*
X102716066Y-138475351D01*
X102824588Y-138564413D01*
X102702965Y-138667990D01*
X102521495Y-138897512D01*
X102388289Y-139158027D01*
X102327267Y-139345736D01*
X102448472Y-139577000D01*
X103691667Y-139577000D01*
X103691667Y-139557000D01*
X103945667Y-139557000D01*
X103945667Y-139577000D01*
X105188862Y-139577000D01*
X105310067Y-139345736D01*
X105249045Y-139158027D01*
X105115839Y-138897512D01*
X104934369Y-138667990D01*
X104812746Y-138564413D01*
X104921268Y-138475351D01*
X105107934Y-138247898D01*
X105246639Y-137988399D01*
X105332053Y-137706826D01*
X105360894Y-137414000D01*
X105332053Y-137121174D01*
X105246639Y-136839601D01*
X105107934Y-136580102D01*
X105059217Y-136520740D01*
X105073161Y-136513287D01*
X105169852Y-136433935D01*
X105249204Y-136337244D01*
X105308169Y-136226930D01*
X105344479Y-136107232D01*
X105356739Y-135982750D01*
X105356739Y-134265250D01*
X105344479Y-134140768D01*
X105308169Y-134021070D01*
X105249204Y-133910756D01*
X105169852Y-133814065D01*
X105073161Y-133734713D01*
X104962847Y-133675748D01*
X104843149Y-133639438D01*
X104718667Y-133627178D01*
X102918667Y-133627178D01*
X102794185Y-133639438D01*
X102674487Y-133675748D01*
X102564173Y-133734713D01*
X102467482Y-133814065D01*
X102388130Y-133910756D01*
X102329165Y-134021070D01*
X102292855Y-134140768D01*
X102280595Y-134265250D01*
X102280595Y-135982750D01*
X102292855Y-136107232D01*
X102329165Y-136226930D01*
X102388130Y-136337244D01*
X102467482Y-136433935D01*
X102564173Y-136513287D01*
X102578117Y-136520740D01*
X102529400Y-136580102D01*
X102390695Y-136839601D01*
X102305281Y-137121174D01*
X102276440Y-137414000D01*
X63931000Y-137414000D01*
X63931000Y-130414665D01*
X67911000Y-130414665D01*
X67911000Y-130697335D01*
X67966147Y-130974574D01*
X68074320Y-131235727D01*
X68231363Y-131470759D01*
X68431241Y-131670637D01*
X68666273Y-131827680D01*
X68927426Y-131935853D01*
X69204665Y-131991000D01*
X69487335Y-131991000D01*
X69764574Y-131935853D01*
X70025727Y-131827680D01*
X70260759Y-131670637D01*
X70460637Y-131470759D01*
X70616000Y-131238241D01*
X70771363Y-131470759D01*
X70971241Y-131670637D01*
X71206273Y-131827680D01*
X71467426Y-131935853D01*
X71744665Y-131991000D01*
X72027335Y-131991000D01*
X72304574Y-131935853D01*
X72565727Y-131827680D01*
X72800759Y-131670637D01*
X73000637Y-131470759D01*
X73156000Y-131238241D01*
X73311363Y-131470759D01*
X73511241Y-131670637D01*
X73746273Y-131827680D01*
X74007426Y-131935853D01*
X74284665Y-131991000D01*
X74567335Y-131991000D01*
X74844574Y-131935853D01*
X75105727Y-131827680D01*
X75340759Y-131670637D01*
X75540637Y-131470759D01*
X75697680Y-131235727D01*
X75702067Y-131225135D01*
X75813615Y-131411131D01*
X76002586Y-131619519D01*
X76228580Y-131787037D01*
X76482913Y-131907246D01*
X76616961Y-131947904D01*
X76839000Y-131825915D01*
X76839000Y-130683000D01*
X76819000Y-130683000D01*
X76819000Y-130429000D01*
X76839000Y-130429000D01*
X76839000Y-129286085D01*
X77093000Y-129286085D01*
X77093000Y-130429000D01*
X77113000Y-130429000D01*
X77113000Y-130683000D01*
X77093000Y-130683000D01*
X77093000Y-131825915D01*
X77315039Y-131947904D01*
X77449087Y-131907246D01*
X77703420Y-131787037D01*
X77929414Y-131619519D01*
X78118385Y-131411131D01*
X78229933Y-131225135D01*
X78234320Y-131235727D01*
X78391363Y-131470759D01*
X78591241Y-131670637D01*
X78826273Y-131827680D01*
X79087426Y-131935853D01*
X79364665Y-131991000D01*
X79647335Y-131991000D01*
X79924574Y-131935853D01*
X80185727Y-131827680D01*
X80420759Y-131670637D01*
X80620637Y-131470759D01*
X80776000Y-131238241D01*
X80931363Y-131470759D01*
X81131241Y-131670637D01*
X81366273Y-131827680D01*
X81627426Y-131935853D01*
X81904665Y-131991000D01*
X82187335Y-131991000D01*
X82464574Y-131935853D01*
X82725727Y-131827680D01*
X82960759Y-131670637D01*
X83160637Y-131470759D01*
X83316000Y-131238241D01*
X83471363Y-131470759D01*
X83671241Y-131670637D01*
X83906273Y-131827680D01*
X84167426Y-131935853D01*
X84444665Y-131991000D01*
X84727335Y-131991000D01*
X85004574Y-131935853D01*
X85265727Y-131827680D01*
X85500759Y-131670637D01*
X85700637Y-131470759D01*
X85856000Y-131238241D01*
X86011363Y-131470759D01*
X86211241Y-131670637D01*
X86446273Y-131827680D01*
X86707426Y-131935853D01*
X86984665Y-131991000D01*
X87267335Y-131991000D01*
X87544574Y-131935853D01*
X87805727Y-131827680D01*
X88040759Y-131670637D01*
X88240637Y-131470759D01*
X88396000Y-131238241D01*
X88551363Y-131470759D01*
X88751241Y-131670637D01*
X88986273Y-131827680D01*
X89247426Y-131935853D01*
X89524665Y-131991000D01*
X89807335Y-131991000D01*
X90084574Y-131935853D01*
X90345727Y-131827680D01*
X90580759Y-131670637D01*
X90780637Y-131470759D01*
X90936000Y-131238241D01*
X91091363Y-131470759D01*
X91291241Y-131670637D01*
X91526273Y-131827680D01*
X91787426Y-131935853D01*
X92064665Y-131991000D01*
X92347335Y-131991000D01*
X92624574Y-131935853D01*
X92885727Y-131827680D01*
X93120759Y-131670637D01*
X93320637Y-131470759D01*
X93477680Y-131235727D01*
X93585853Y-130974574D01*
X93641000Y-130697335D01*
X93641000Y-130414665D01*
X94831000Y-130414665D01*
X94831000Y-130697335D01*
X94886147Y-130974574D01*
X94994320Y-131235727D01*
X95151363Y-131470759D01*
X95351241Y-131670637D01*
X95586273Y-131827680D01*
X95847426Y-131935853D01*
X96124665Y-131991000D01*
X96407335Y-131991000D01*
X96684574Y-131935853D01*
X96945727Y-131827680D01*
X97180759Y-131670637D01*
X97380637Y-131470759D01*
X97536000Y-131238241D01*
X97691363Y-131470759D01*
X97891241Y-131670637D01*
X98126273Y-131827680D01*
X98387426Y-131935853D01*
X98664665Y-131991000D01*
X98947335Y-131991000D01*
X99224574Y-131935853D01*
X99485727Y-131827680D01*
X99720759Y-131670637D01*
X99920637Y-131470759D01*
X100076000Y-131238241D01*
X100231363Y-131470759D01*
X100431241Y-131670637D01*
X100666273Y-131827680D01*
X100927426Y-131935853D01*
X101204665Y-131991000D01*
X101487335Y-131991000D01*
X101764574Y-131935853D01*
X102025727Y-131827680D01*
X102260759Y-131670637D01*
X102460637Y-131470759D01*
X102616000Y-131238241D01*
X102771363Y-131470759D01*
X102971241Y-131670637D01*
X103206273Y-131827680D01*
X103467426Y-131935853D01*
X103744665Y-131991000D01*
X104027335Y-131991000D01*
X104304574Y-131935853D01*
X104565727Y-131827680D01*
X104800759Y-131670637D01*
X105000637Y-131470759D01*
X105156000Y-131238241D01*
X105311363Y-131470759D01*
X105511241Y-131670637D01*
X105746273Y-131827680D01*
X106007426Y-131935853D01*
X106284665Y-131991000D01*
X106567335Y-131991000D01*
X106844574Y-131935853D01*
X107105727Y-131827680D01*
X107340759Y-131670637D01*
X107540637Y-131470759D01*
X107696000Y-131238241D01*
X107851363Y-131470759D01*
X108051241Y-131670637D01*
X108286273Y-131827680D01*
X108547426Y-131935853D01*
X108824665Y-131991000D01*
X109107335Y-131991000D01*
X109384574Y-131935853D01*
X109645727Y-131827680D01*
X109880759Y-131670637D01*
X110080637Y-131470759D01*
X110236000Y-131238241D01*
X110391363Y-131470759D01*
X110591241Y-131670637D01*
X110826273Y-131827680D01*
X111087426Y-131935853D01*
X111364665Y-131991000D01*
X111647335Y-131991000D01*
X111924574Y-131935853D01*
X112185727Y-131827680D01*
X112420759Y-131670637D01*
X112620637Y-131470759D01*
X112776000Y-131238241D01*
X112931363Y-131470759D01*
X113131241Y-131670637D01*
X113366273Y-131827680D01*
X113627426Y-131935853D01*
X113904665Y-131991000D01*
X114187335Y-131991000D01*
X114464574Y-131935853D01*
X114725727Y-131827680D01*
X114960759Y-131670637D01*
X115160637Y-131470759D01*
X115317680Y-131235727D01*
X115425853Y-130974574D01*
X115481000Y-130697335D01*
X115481000Y-130414665D01*
X115425853Y-130137426D01*
X115317680Y-129876273D01*
X115160637Y-129641241D01*
X114960759Y-129441363D01*
X114725727Y-129284320D01*
X114464574Y-129176147D01*
X114187335Y-129121000D01*
X113904665Y-129121000D01*
X113627426Y-129176147D01*
X113366273Y-129284320D01*
X113131241Y-129441363D01*
X112931363Y-129641241D01*
X112776000Y-129873759D01*
X112620637Y-129641241D01*
X112420759Y-129441363D01*
X112185727Y-129284320D01*
X111924574Y-129176147D01*
X111647335Y-129121000D01*
X111364665Y-129121000D01*
X111087426Y-129176147D01*
X110826273Y-129284320D01*
X110591241Y-129441363D01*
X110391363Y-129641241D01*
X110236000Y-129873759D01*
X110080637Y-129641241D01*
X109880759Y-129441363D01*
X109645727Y-129284320D01*
X109384574Y-129176147D01*
X109107335Y-129121000D01*
X108824665Y-129121000D01*
X108547426Y-129176147D01*
X108286273Y-129284320D01*
X108051241Y-129441363D01*
X107851363Y-129641241D01*
X107696000Y-129873759D01*
X107540637Y-129641241D01*
X107340759Y-129441363D01*
X107105727Y-129284320D01*
X106844574Y-129176147D01*
X106567335Y-129121000D01*
X106284665Y-129121000D01*
X106007426Y-129176147D01*
X105746273Y-129284320D01*
X105511241Y-129441363D01*
X105311363Y-129641241D01*
X105156000Y-129873759D01*
X105000637Y-129641241D01*
X104800759Y-129441363D01*
X104565727Y-129284320D01*
X104304574Y-129176147D01*
X104027335Y-129121000D01*
X103744665Y-129121000D01*
X103467426Y-129176147D01*
X103206273Y-129284320D01*
X102971241Y-129441363D01*
X102771363Y-129641241D01*
X102616000Y-129873759D01*
X102460637Y-129641241D01*
X102260759Y-129441363D01*
X102025727Y-129284320D01*
X101764574Y-129176147D01*
X101487335Y-129121000D01*
X101204665Y-129121000D01*
X100927426Y-129176147D01*
X100666273Y-129284320D01*
X100431241Y-129441363D01*
X100231363Y-129641241D01*
X100076000Y-129873759D01*
X99920637Y-129641241D01*
X99720759Y-129441363D01*
X99485727Y-129284320D01*
X99224574Y-129176147D01*
X98947335Y-129121000D01*
X98664665Y-129121000D01*
X98387426Y-129176147D01*
X98126273Y-129284320D01*
X97891241Y-129441363D01*
X97691363Y-129641241D01*
X97536000Y-129873759D01*
X97380637Y-129641241D01*
X97180759Y-129441363D01*
X96945727Y-129284320D01*
X96684574Y-129176147D01*
X96407335Y-129121000D01*
X96124665Y-129121000D01*
X95847426Y-129176147D01*
X95586273Y-129284320D01*
X95351241Y-129441363D01*
X95151363Y-129641241D01*
X94994320Y-129876273D01*
X94886147Y-130137426D01*
X94831000Y-130414665D01*
X93641000Y-130414665D01*
X93585853Y-130137426D01*
X93477680Y-129876273D01*
X93320637Y-129641241D01*
X93120759Y-129441363D01*
X92885727Y-129284320D01*
X92624574Y-129176147D01*
X92347335Y-129121000D01*
X92064665Y-129121000D01*
X91787426Y-129176147D01*
X91526273Y-129284320D01*
X91291241Y-129441363D01*
X91091363Y-129641241D01*
X90936000Y-129873759D01*
X90780637Y-129641241D01*
X90580759Y-129441363D01*
X90345727Y-129284320D01*
X90084574Y-129176147D01*
X89807335Y-129121000D01*
X89524665Y-129121000D01*
X89247426Y-129176147D01*
X88986273Y-129284320D01*
X88751241Y-129441363D01*
X88551363Y-129641241D01*
X88396000Y-129873759D01*
X88240637Y-129641241D01*
X88040759Y-129441363D01*
X87805727Y-129284320D01*
X87544574Y-129176147D01*
X87267335Y-129121000D01*
X86984665Y-129121000D01*
X86707426Y-129176147D01*
X86446273Y-129284320D01*
X86211241Y-129441363D01*
X86011363Y-129641241D01*
X85856000Y-129873759D01*
X85700637Y-129641241D01*
X85500759Y-129441363D01*
X85265727Y-129284320D01*
X85004574Y-129176147D01*
X84727335Y-129121000D01*
X84444665Y-129121000D01*
X84167426Y-129176147D01*
X83906273Y-129284320D01*
X83671241Y-129441363D01*
X83471363Y-129641241D01*
X83316000Y-129873759D01*
X83160637Y-129641241D01*
X82960759Y-129441363D01*
X82725727Y-129284320D01*
X82464574Y-129176147D01*
X82187335Y-129121000D01*
X81904665Y-129121000D01*
X81627426Y-129176147D01*
X81366273Y-129284320D01*
X81131241Y-129441363D01*
X80931363Y-129641241D01*
X80776000Y-129873759D01*
X80620637Y-129641241D01*
X80420759Y-129441363D01*
X80185727Y-129284320D01*
X79924574Y-129176147D01*
X79647335Y-129121000D01*
X79364665Y-129121000D01*
X79087426Y-129176147D01*
X78826273Y-129284320D01*
X78591241Y-129441363D01*
X78391363Y-129641241D01*
X78234320Y-129876273D01*
X78229933Y-129886865D01*
X78118385Y-129700869D01*
X77929414Y-129492481D01*
X77703420Y-129324963D01*
X77449087Y-129204754D01*
X77315039Y-129164096D01*
X77093000Y-129286085D01*
X76839000Y-129286085D01*
X76616961Y-129164096D01*
X76482913Y-129204754D01*
X76228580Y-129324963D01*
X76002586Y-129492481D01*
X75813615Y-129700869D01*
X75702067Y-129886865D01*
X75697680Y-129876273D01*
X75540637Y-129641241D01*
X75340759Y-129441363D01*
X75105727Y-129284320D01*
X74844574Y-129176147D01*
X74567335Y-129121000D01*
X74284665Y-129121000D01*
X74007426Y-129176147D01*
X73746273Y-129284320D01*
X73511241Y-129441363D01*
X73311363Y-129641241D01*
X73156000Y-129873759D01*
X73000637Y-129641241D01*
X72800759Y-129441363D01*
X72565727Y-129284320D01*
X72304574Y-129176147D01*
X72027335Y-129121000D01*
X71744665Y-129121000D01*
X71467426Y-129176147D01*
X71206273Y-129284320D01*
X70971241Y-129441363D01*
X70771363Y-129641241D01*
X70616000Y-129873759D01*
X70460637Y-129641241D01*
X70260759Y-129441363D01*
X70025727Y-129284320D01*
X69764574Y-129176147D01*
X69487335Y-129121000D01*
X69204665Y-129121000D01*
X68927426Y-129176147D01*
X68666273Y-129284320D01*
X68431241Y-129441363D01*
X68231363Y-129641241D01*
X68074320Y-129876273D01*
X67966147Y-130137426D01*
X67911000Y-130414665D01*
X63931000Y-130414665D01*
X63931000Y-128701000D01*
X114778264Y-128701000D01*
X115901001Y-129823737D01*
%TD*%
M02*
