M48
; DRILL file {KiCad 5.1.6+dfsg1-1} date Tue Jul  7 20:30:37 2020
; FORMAT={-:-/ absolute / inch / decimal}
; #@! TF.CreationDate,2020-07-07T20:30:37+01:00
; #@! TF.GenerationSoftware,Kicad,Pcbnew,5.1.6+dfsg1-1
FMAT,2
INCH
T1C0.0315
T2C0.0394
T3C0.0433
T4C0.0512
%
G90
G05
T1
X2.95Y-5.78
X3.05Y-5.78
X3.15Y-5.78
X3.25Y-5.78
X3.35Y-5.78
X3.45Y-5.78
X3.55Y-5.78
X3.65Y-5.78
X3.67Y-6.5613
X3.67Y-6.64
X3.39Y-6.43
X3.39Y-6.83
T2
X3.96Y-6.61
X4.06Y-6.61
X2.7302Y-5.14
X2.8302Y-5.14
X2.9302Y-5.14
X3.0302Y-5.14
X3.09Y-7.04
X3.1302Y-5.14
X3.19Y-7.04
X3.2302Y-5.14
X3.29Y-7.04
X3.3302Y-5.14
X3.39Y-7.04
X3.4302Y-5.14
X3.49Y-7.04
X3.5302Y-5.14
X3.59Y-7.04
X3.6302Y-5.14
X3.69Y-7.04
X3.79Y-5.14
X3.79Y-7.04
X3.89Y-5.14
X3.99Y-5.14
X3.99Y-7.04
X4.09Y-5.14
X4.09Y-7.04
X4.19Y-5.14
X4.19Y-7.04
X4.29Y-5.14
X4.29Y-7.04
X4.39Y-5.14
X4.39Y-7.04
X4.49Y-5.14
X4.49Y-7.04
T3
X4.0873Y-5.3198
X4.0873Y-5.41
X4.0873Y-5.5002
X2.72Y-6.0428
X2.72Y-6.22
X2.9759Y-6.0428
X2.9759Y-6.22
X2.7241Y-6.5928
X2.7241Y-6.77
X2.98Y-6.5928
X2.98Y-6.77
T4
X4.43Y-6.23
X4.43Y-6.43
X4.43Y-6.63
X4.43Y-6.83
X4.43Y-5.75
X4.43Y-5.95
T2
G00X3.595Y-6.8083
M15
G01X3.595Y-6.8517
M16
G05
G00X3.7407Y-6.8083
M15
G01X3.7407Y-6.8517
M16
G05
G00X3.91Y-6.8083
M15
G01X3.91Y-6.8517
M16
G05
G00X4.0557Y-6.8083
M15
G01X4.0557Y-6.8517
M16
G05
G00X4.0617Y-5.9643
M15
G01X4.0183Y-5.9643
M16
G05
G00X4.0617Y-6.11
M15
G01X4.0183Y-6.11
M16
G05
G00X4.0617Y-6.2793
M15
G01X4.0183Y-6.2793
M16
G05
G00X4.0617Y-6.425
M15
G01X4.0183Y-6.425
M16
G05
T0
M30
