%TF.GenerationSoftware,KiCad,Pcbnew,5.1.6+dfsg1-1*%
%TF.CreationDate,2020-07-08T08:01:11+01:00*%
%TF.ProjectId,Brew_Temperature_Controller,42726577-5f54-4656-9d70-657261747572,rev?*%
%TF.SameCoordinates,Original*%
%TF.FileFunction,Soldermask,Bot*%
%TF.FilePolarity,Negative*%
%FSLAX46Y46*%
G04 Gerber Fmt 4.6, Leading zero omitted, Abs format (unit mm)*
G04 Created by KiCad (PCBNEW 5.1.6+dfsg1-1) date 2020-07-08 08:01:11*
%MOMM*%
%LPD*%
G01*
G04 APERTURE LIST*
%ADD10O,1.200000X2.000000*%
%ADD11O,2.000000X3.100000*%
%ADD12O,3.100000X2.000000*%
%ADD13O,1.600000X1.600000*%
%ADD14R,1.600000X1.600000*%
%ADD15C,1.600000*%
%ADD16R,2.600000X2.600000*%
%ADD17C,2.600000*%
%ADD18R,1.700000X1.700000*%
%ADD19O,1.700000X1.700000*%
%ADD20R,1.800000X1.717500*%
%ADD21O,1.800000X1.717500*%
%ADD22C,2.000000*%
G04 APERTURE END LIST*
D10*
%TO.C,U1*%
X74930000Y-146812000D03*
X77470000Y-146812000D03*
X80010000Y-146812000D03*
X82550000Y-146812000D03*
X85090000Y-146812000D03*
X87630000Y-146812000D03*
X90170000Y-146812000D03*
X92710000Y-146812000D03*
%TD*%
D11*
%TO.C,F1*%
X103014000Y-173482000D03*
X99314000Y-173482000D03*
X95014000Y-173482000D03*
X91314000Y-173482000D03*
%TD*%
D12*
%TO.C,F2*%
X102616000Y-163194000D03*
X102616000Y-159494000D03*
X102616000Y-155194000D03*
X102616000Y-151494000D03*
%TD*%
D13*
%TO.C,A1*%
X111506000Y-130556000D03*
X114046000Y-130556000D03*
X74426000Y-130556000D03*
X114046000Y-178816000D03*
X76966000Y-130556000D03*
X111506000Y-178816000D03*
X79506000Y-130556000D03*
X108966000Y-178816000D03*
X82046000Y-130556000D03*
X106426000Y-178816000D03*
X84586000Y-130556000D03*
X103886000Y-178816000D03*
X87126000Y-130556000D03*
X101346000Y-178816000D03*
X89666000Y-130556000D03*
X96266000Y-178816000D03*
X92206000Y-130556000D03*
X93726000Y-178816000D03*
X96266000Y-130556000D03*
X91186000Y-178816000D03*
X98806000Y-130556000D03*
X88646000Y-178816000D03*
X101346000Y-130556000D03*
X86106000Y-178816000D03*
X103886000Y-130556000D03*
X83566000Y-178816000D03*
X106426000Y-130556000D03*
X81026000Y-178816000D03*
X108966000Y-130556000D03*
D14*
X78486000Y-178816000D03*
D13*
X71886000Y-130556000D03*
X69346000Y-130556000D03*
%TD*%
D14*
%TO.C,C3*%
X93218000Y-168656000D03*
D15*
X93218000Y-166656000D03*
%TD*%
D16*
%TO.C,J1*%
X112522000Y-173482000D03*
D17*
X112522000Y-168402000D03*
X112522000Y-163322000D03*
X112522000Y-158242000D03*
%TD*%
D16*
%TO.C,J2*%
X112522000Y-151130000D03*
D17*
X112522000Y-146050000D03*
%TD*%
D18*
%TO.C,J3*%
X103124000Y-167894000D03*
D19*
X100584000Y-167894000D03*
%TD*%
D20*
%TO.C,Q1*%
X103818667Y-135124000D03*
D21*
X103818667Y-137414000D03*
X103818667Y-139704000D03*
%TD*%
D15*
%TO.C,R1*%
X86106000Y-173482000D03*
D13*
X86106000Y-163322000D03*
%TD*%
D22*
%TO.C,SW1*%
X75588000Y-153488000D03*
X75588000Y-157988000D03*
X69088000Y-153488000D03*
X69088000Y-157988000D03*
%TD*%
%TO.C,SW2*%
X69192000Y-171958000D03*
X69192000Y-167458000D03*
X75692000Y-171958000D03*
X75692000Y-167458000D03*
%TD*%
M02*
